<svg width="64" height="64" viewBox="0 0 64 64" fill="none" xmlns="http://www.w3.org/2000/svg">
<g clip-path="url(#clip0_1_737)">
<path d="M30.1776 0.0625267C23.7236 0.425541 17.6053 2.7132 12.453 6.67894C11.9392 7.06936 11.487 7.43237 11.439 7.47346C11.3979 7.52141 11.1581 7.72689 10.9183 7.93237C10.3154 8.44606 8.43811 10.3091 7.97906 10.857C7.77352 11.0967 7.54743 11.357 7.47891 11.4324C7.13634 11.7954 5.86198 13.5145 5.29332 14.3844C4.14229 16.1173 3.04606 18.1926 2.36092 19.9323C2.20334 20.3227 2.03891 20.7268 1.9841 20.8433C1.67579 21.5625 1.00435 23.8844 0.723442 25.1926C-1.18124 34.2474 0.702888 43.2747 6.04697 50.7405C6.33473 51.1377 6.58138 51.4733 6.60879 51.4939C6.62934 51.5144 6.79377 51.7131 6.96506 51.9391C7.13634 52.1651 7.33503 52.4117 7.4104 52.487C7.47891 52.5692 7.73241 52.8569 7.97221 53.1377C8.62995 53.9048 10.3085 55.5555 11.1992 56.3158C16.2418 60.624 22.4972 63.2678 29.0128 63.85C31.5478 64.076 33.4799 64.0486 35.9327 63.7541C40.1737 63.2336 44.3668 61.8295 48.0254 59.6925C49.1148 59.0623 50.9236 57.8637 51.3621 57.487C51.4511 57.4117 51.7389 57.1788 51.9992 56.9733C53.6162 55.7062 55.9456 53.3637 57.1035 51.8363C57.2337 51.6651 57.357 51.5144 57.3776 51.4939C57.4872 51.3911 57.912 50.7952 58.4807 49.9528C63.6261 42.3501 65.2567 33.083 63.0231 24.1309C62.6874 22.7816 61.9269 20.5488 61.3925 19.3364C60.9814 18.4118 60.1798 16.7748 60.0496 16.5967C60.0222 16.5556 59.8852 16.3091 59.7413 16.0488C59.3576 15.3365 57.6722 12.8022 57.4461 12.5899C57.4255 12.5693 57.3022 12.4187 57.172 12.2474C55.9525 10.6378 53.4449 8.13784 51.828 6.90497C51.6567 6.77483 51.5059 6.65155 51.4854 6.62415C51.4032 6.52141 49.8753 5.45292 49.1902 5.02826C47.8679 4.1995 47.5595 4.02142 46.4907 3.48032C42.3867 1.41184 38.2211 0.30225 33.6375 0.0556755C32.2467 -0.0196686 31.6095 -0.0196686 30.1776 0.0625267ZM31.4656 1.50088C31.4862 1.8091 31.4793 1.8228 31.2669 1.86389C31.1505 1.88444 30.8422 1.90499 30.5887 1.90499H30.1296L30.0816 1.69266C29.9789 1.17896 30.0063 1.16526 30.897 1.17896L31.4451 1.18581L31.4656 1.50088ZM33.384 1.51458C33.3977 1.73375 33.3772 1.85019 33.3155 1.87074C33.2675 1.89129 32.9524 1.88444 32.6098 1.85704L31.9932 1.80225L31.9726 1.47348L31.9521 1.14471L32.6578 1.16526L33.3635 1.18581L33.384 1.51458ZM35.3709 1.32965C35.4326 1.35019 35.4531 1.45978 35.4394 1.67896L35.4189 2.00772L34.8365 1.98718C34.0075 1.95293 33.9938 1.94608 34.0418 1.61047C34.0623 1.45293 34.076 1.30225 34.076 1.268C34.0829 1.22006 35.1859 1.268 35.3709 1.32965ZM29.3828 1.50088C29.4719 1.94608 29.4787 1.93923 28.7662 2.03512C28.4031 2.08307 28.0947 2.10361 28.0742 2.08992C28.0605 2.06937 28.0399 1.90499 28.0331 1.72005L28.0194 1.39129L28.3619 1.35019C28.5538 1.32965 28.8484 1.30225 29.0197 1.30225C29.328 1.28855 29.3417 1.2954 29.3828 1.50088ZM37.1249 1.57622L37.5223 1.65156L37.4811 1.95978C37.4606 2.13101 37.4263 2.2817 37.4126 2.29539C37.3715 2.33649 36.1794 2.15841 36.1177 2.10361C36.0835 2.08307 36.0835 1.91183 36.104 1.7406L36.152 1.41869L36.4397 1.45978C36.5905 1.48033 36.8988 1.53513 37.1249 1.57622ZM27.3274 1.91869L27.3342 2.2132L27.0259 2.26115C26.8546 2.28855 26.56 2.32964 26.3682 2.35704L26.0188 2.40498L25.9708 2.07622C25.9434 1.89814 25.9297 1.74745 25.9434 1.73375C26.0119 1.67896 27.2109 1.52827 27.2589 1.56937C27.2931 1.60362 27.3274 1.7543 27.3274 1.91869ZM39.0844 1.97348C39.564 2.09677 39.5708 2.11047 39.4612 2.56937C39.4201 2.7543 39.3447 2.76115 38.6733 2.59676C38.2005 2.48717 38.1594 2.45978 38.1389 2.2817C38.1252 2.17896 38.132 2.02142 38.1526 1.93238C38.2005 1.7543 38.228 1.7543 39.0844 1.97348ZM25.3062 2.15841C25.3473 2.30225 25.3816 2.45293 25.3816 2.49403C25.3816 2.59676 24.1552 2.90498 24.0867 2.82279C24.0182 2.74745 23.8537 2.24745 23.888 2.22005C23.9154 2.19266 25.0459 1.91869 25.1555 1.91183C25.2035 1.90499 25.272 2.02142 25.3062 2.15841ZM40.9342 2.45978C41.2152 2.53512 41.4755 2.62416 41.5029 2.65156C41.5988 2.74745 41.407 3.27485 41.2837 3.27485C41.1809 3.27485 40.1806 3.00087 40.1189 2.95978C40.1052 2.94608 40.1189 2.79539 40.1395 2.62416C40.1943 2.26115 40.2149 2.2543 40.9342 2.45978ZM23.3262 2.76115C23.3741 2.93238 23.4015 3.08307 23.3878 3.08991C23.3467 3.11731 22.1957 3.48032 22.1477 3.48032C22.0998 3.48032 21.86 2.86389 21.8942 2.82964C21.9422 2.78854 23.0179 2.45978 23.1275 2.45293C23.2029 2.45293 23.2714 2.55567 23.3262 2.76115ZM33.8499 2.92553C33.9938 3.00087 34.1788 3.12416 34.2541 3.18581C34.4597 3.36389 34.7132 3.80909 34.6652 3.89128C34.583 4.02142 33.802 3.89128 33.5622 3.70635C32.877 3.18581 31.8973 4.09676 32.3426 4.83648C32.6167 5.29539 33.199 5.43237 33.5964 5.13785C33.7608 5.02142 33.891 4.98717 34.2541 4.98717C34.5008 4.98717 34.6995 5.01456 34.6995 5.04881C34.6995 5.16525 34.2473 5.70634 34.0212 5.85703C33.2401 6.38443 32.1028 6.09676 31.6095 5.24744C31.4725 5.00772 31.4451 4.85703 31.4451 4.43922C31.4451 4.00087 31.4725 3.87758 31.6369 3.60361C32.1028 2.80909 33.0757 2.51457 33.8499 2.92553ZM42.9349 3.13101C43.298 3.2817 43.4419 3.37074 43.4556 3.47348C43.483 3.62416 43.2843 4.04882 43.2089 4.01457C43.1815 4.00087 42.928 3.90498 42.6471 3.79539C42.3662 3.6858 42.1058 3.57621 42.0784 3.54882C42.0442 3.52142 42.0579 3.37074 42.1058 3.2132C42.2086 2.87074 42.2634 2.86389 42.9349 3.13101ZM21.2913 3.2543C21.5311 3.72005 21.5311 3.72005 20.9213 3.95293C20.6199 4.06936 20.3321 4.16525 20.2842 4.16525C20.1882 4.16525 19.969 3.81594 19.969 3.66526C19.969 3.60361 20.1951 3.47348 20.5719 3.32279C20.9008 3.18581 21.1748 3.07621 21.1817 3.06937C21.1885 3.06937 21.2434 3.15156 21.2913 3.2543ZM27.3274 3.2543C27.3411 3.32279 27.4439 3.88443 27.5398 4.50772C27.6426 5.131 27.7453 5.6584 27.7727 5.67895C27.7933 5.70634 28.0262 5.69265 28.2797 5.6584C28.5332 5.6173 28.7593 5.6036 28.7799 5.62415C28.8758 5.71319 28.9238 6.15155 28.8484 6.20634C28.7319 6.28168 27.0944 6.54196 27.0602 6.49401C26.9985 6.39812 26.5874 3.84334 26.5874 3.54882C26.5806 3.24745 26.5874 3.2406 26.8204 3.1995C27.2246 3.12416 27.2863 3.13101 27.3274 3.2543ZM37.8306 3.30909C38.5089 3.58991 38.8788 4.15155 38.8788 4.88443C38.872 5.56251 38.5774 6.05566 37.9882 6.36388C37.7415 6.49401 37.5771 6.52826 37.166 6.52826C36.7275 6.52141 36.611 6.49401 36.3438 6.32963C34.8845 5.42552 35.4805 3.2132 37.1865 3.20635C37.4058 3.20635 37.6935 3.2543 37.8306 3.30909ZM25.3816 3.72005C25.4296 3.85704 25.4501 4.00772 25.4296 4.05566C25.409 4.10361 25.1829 4.1995 24.9226 4.26799C24.669 4.33649 24.4293 4.41868 24.395 4.44608C24.3539 4.48032 24.3607 4.61046 24.4155 4.78169C24.5046 5.08306 24.4772 5.08306 25.1692 4.87758C25.3405 4.82964 25.4981 4.80224 25.5255 4.82278C25.5597 4.84333 25.6008 4.96662 25.6282 5.11045C25.6556 5.24744 25.6831 5.37758 25.6831 5.39128C25.6899 5.41182 25.4775 5.48717 25.2103 5.56936C24.6965 5.72689 24.6759 5.76114 24.8266 6.16525L24.8951 6.34333L25.457 6.17895C25.7721 6.0899 26.0325 6.01456 26.0393 6.01456C26.0667 6.01456 26.2175 6.63785 26.1969 6.6584C26.1421 6.70634 24.4498 7.17894 24.3402 7.17894C24.2785 7.17894 24.21 7.09675 24.1895 6.98716C24.162 6.88442 23.9702 6.22004 23.7647 5.51456C23.5591 4.80909 23.3947 4.17895 23.4084 4.11731C23.4221 4.03512 23.6824 3.92553 24.2854 3.74745C24.7581 3.60361 25.1761 3.48717 25.224 3.48717C25.2651 3.48032 25.3405 3.58991 25.3816 3.72005ZM44.8738 3.95977L45.463 4.2269L45.326 4.50087C45.2438 4.65155 45.1616 4.78854 45.1342 4.80224C45.0519 4.85018 43.9489 4.32279 43.9489 4.23375C43.9489 4.08991 44.1476 3.6858 44.2161 3.6858C44.2572 3.6858 44.5518 3.80909 44.8738 3.95977ZM19.462 4.1995C19.5237 4.37073 19.5648 4.52142 19.5511 4.52827C19.4757 4.58306 18.448 5.05566 18.4 5.05566C18.3452 5.05566 18.0232 4.51457 18.0575 4.48032C18.1328 4.41183 19.1948 3.89813 19.2633 3.89128C19.3044 3.89128 19.3935 4.02827 19.462 4.1995ZM40.8589 4.10361C41.1398 4.1858 41.1466 4.1995 41.3111 4.74059C41.4001 5.04881 41.5235 5.49401 41.5851 5.74059C41.6468 5.98717 41.729 6.23374 41.7564 6.28854C41.8249 6.40497 41.8044 6.43922 42.1675 5.37758C42.3662 4.82278 42.421 4.7132 42.5375 4.72005C42.7841 4.72689 43.1609 4.89813 43.1541 4.99402C43.1472 5.04881 42.9212 5.74744 42.6471 6.54196C42.2977 7.54881 42.1127 8.00086 42.0442 8.00086C41.8318 8.00086 41.4001 7.83648 41.3453 7.72689C41.3111 7.66524 41.1603 7.17894 41.0096 6.63785C40.8589 6.09676 40.7219 5.6447 40.7082 5.62415C40.6876 5.61045 40.5437 5.98717 40.3861 6.45977C40.2217 6.93237 40.0573 7.31593 40.0093 7.31593C39.9682 7.31593 39.7901 7.26798 39.6188 7.20634L39.3036 7.1036L39.4269 6.71319C39.5434 6.36388 40.2491 4.29539 40.345 4.04882C40.3724 3.99402 40.4272 3.95977 40.4821 3.98032C40.5369 4.00087 40.7013 4.05566 40.8589 4.10361ZM22.7507 5.87757C23.0658 6.65155 23.3467 7.32963 23.3604 7.39127C23.3878 7.48031 23.3193 7.53511 23.0795 7.6173C22.9014 7.67894 22.7096 7.72689 22.6547 7.72689C22.5657 7.72689 22.1546 7.47346 20.8665 6.63785C20.7089 6.53511 20.7089 6.54196 20.7569 6.69949C20.7843 6.79538 20.8665 6.99401 20.935 7.15155C21.1543 7.63784 21.3393 8.13785 21.3393 8.23374C21.3393 8.32278 20.8802 8.54881 20.6952 8.54881C20.6404 8.54881 20.524 8.34333 20.428 8.08305C20.3321 7.82963 20.0649 7.17894 19.8388 6.631C19.6059 6.08306 19.4209 5.6036 19.4209 5.56936C19.4209 5.49401 19.9416 5.26114 20.0992 5.26114C20.2019 5.26114 20.4006 5.37758 21.353 5.99401C21.7161 6.23374 22.0313 6.42552 22.0518 6.42552C22.0724 6.42552 21.9353 6.05566 21.7435 5.6036C21.5585 5.1447 21.4078 4.76114 21.4078 4.74744C21.4078 4.67895 21.9285 4.44608 22.045 4.45977C22.1409 4.46662 22.3122 4.81594 22.7507 5.87757ZM46.6963 4.86388C46.9977 5.02142 47.2375 5.17895 47.2375 5.20634C47.2375 5.24059 47.1759 5.39128 47.1005 5.54196L46.9566 5.80908L46.4291 5.52826C46.1413 5.37073 45.8741 5.2132 45.8398 5.1858C45.7645 5.11731 45.9906 4.57621 46.0933 4.57621C46.1276 4.57621 46.4017 4.70635 46.6963 4.86388ZM17.5916 5.06251C17.6532 5.17895 17.708 5.30909 17.708 5.35703C17.708 5.44607 16.742 6.01456 16.5913 6.01456C16.5502 6.01456 16.4405 5.89812 16.3583 5.75429L16.2076 5.48717L16.7351 5.1721C17.0229 4.99402 17.3107 4.85018 17.3655 4.85018C17.4203 4.85018 17.523 4.94607 17.5916 5.06251ZM48.3817 5.85018C48.4982 5.93922 48.6215 6.01456 48.6558 6.01456C48.6832 6.02141 48.7859 6.08306 48.875 6.1584L49.0463 6.29538L48.9161 6.54196C48.8408 6.6721 48.7448 6.79538 48.7037 6.81593C48.6421 6.83648 47.7582 6.33648 47.5869 6.17895C47.5664 6.1584 47.6212 6.00771 47.7034 5.83648C47.8679 5.49401 47.9021 5.49401 48.3817 5.85018ZM45.2849 5.90497C45.9974 6.20634 46.4291 6.93237 46.1276 7.33648C46.0454 7.43922 46.0111 7.43237 45.696 7.26114C45.4288 7.1173 45.3465 7.03511 45.3328 6.89127C45.3123 6.72004 45.0999 6.49401 44.9629 6.49401C44.8738 6.49401 44.7025 6.71319 44.7025 6.82963C44.7025 6.89812 44.8738 7.13785 45.0793 7.36387C45.6206 7.96661 45.7165 8.30908 45.4562 8.73373C45.2575 9.0625 45.0245 9.18579 44.6066 9.17894C44.2572 9.17894 43.8941 9.04195 43.5994 8.80908C43.387 8.63784 43.1952 8.24059 43.1952 7.96661C43.1952 7.54196 43.25 7.50771 43.6611 7.70634C43.9489 7.84332 44.0174 7.90497 44.0174 8.04196C44.0174 8.40497 44.5449 8.63784 44.7025 8.33648C44.7916 8.17209 44.6957 7.99401 44.264 7.53511C43.7913 7.03511 43.7159 6.72004 43.9557 6.28854C44.2024 5.85018 44.7642 5.69265 45.2849 5.90497ZM15.8308 6.15155C15.9335 6.30223 16.002 6.43922 15.9883 6.44607C15.7211 6.6447 14.9469 7.11045 14.8853 7.11045C14.7482 7.11045 14.4536 6.63785 14.5358 6.55566C14.6249 6.46662 15.5361 5.89127 15.5978 5.88443C15.6252 5.87757 15.7348 6.00087 15.8308 6.15155ZM18.4411 6.47346C18.5234 6.6173 18.6535 6.85703 18.7357 7.00771C18.8248 7.15839 19.0372 7.54195 19.2153 7.86387C19.3935 8.18579 19.6059 8.55565 19.6881 8.68579C19.9005 9.04195 19.8731 9.12415 19.4825 9.30223L19.14 9.46661L18.1465 8.97346C17.6053 8.69949 17.1599 8.51456 17.1599 8.54881C17.1599 8.5899 17.3449 8.94606 17.571 9.34332C17.7971 9.74743 17.9615 10.0967 17.941 10.131C17.8999 10.2063 17.3997 10.4666 17.3107 10.4666C17.2079 10.4666 15.7074 7.73373 15.7485 7.62415C15.7691 7.56935 15.9267 7.45292 16.0911 7.37072L16.4063 7.22004L17.4066 7.71319C17.9615 7.98716 18.4206 8.19949 18.4274 8.19264C18.4343 8.17894 18.2493 7.82278 18.0095 7.39127C17.7697 6.96661 17.5916 6.5899 17.6121 6.55566C17.6601 6.48032 18.126 6.22689 18.2287 6.22004C18.2699 6.22004 18.3658 6.33648 18.4411 6.47346ZM50.2453 7.11045C50.5125 7.30908 50.7317 7.48716 50.7317 7.50771C50.7317 7.53511 50.6427 7.67209 50.533 7.80908L50.3412 8.0625L49.8205 7.68579C49.5259 7.48031 49.2929 7.27483 49.2929 7.24059C49.2929 7.11045 49.6013 6.69949 49.6835 6.73374C49.7246 6.74744 49.9849 6.91867 50.2453 7.11045ZM31.5478 7.1447V7.45976L30.9518 7.43922L30.3489 7.41867L30.3283 7.12415L30.3077 6.83648H30.9244H31.5478V7.1447ZM33.2059 7.02141C33.2607 7.44606 33.2401 7.45976 32.5893 7.43922L31.9932 7.41867L31.9726 7.12415L31.9521 6.83648H32.5619H33.1785L33.2059 7.02141ZM29.7254 7.05566C29.8487 7.51456 29.8076 7.54195 28.9991 7.62415C28.5401 7.67209 28.5332 7.67209 28.5332 7.51456C28.5332 7.42552 28.5127 7.28168 28.4921 7.20634C28.4579 7.06936 28.4853 7.04881 28.958 6.98716C29.6911 6.89127 29.6774 6.89127 29.7254 7.05566ZM34.6858 6.94607L35.0421 6.99401V7.30223V7.61045L34.6241 7.5625C34.3912 7.54195 34.1103 7.52141 34.0075 7.52141C33.8157 7.52141 33.8088 7.50771 33.8088 7.21319V6.90497H34.0692C34.2062 6.90497 34.4871 6.92552 34.6858 6.94607ZM14.1042 7.26798C14.207 7.39812 14.2823 7.52826 14.2755 7.5625C14.2755 7.62415 13.3026 8.34333 13.2204 8.34333C13.1519 8.34333 12.8504 7.97346 12.8436 7.89127C12.8436 7.78853 13.7548 7.04196 13.8781 7.04196C13.9124 7.04196 14.0083 7.1447 14.1042 7.26798ZM36.4466 7.19949L36.8577 7.28853L36.8371 7.52141C36.8234 7.65154 36.7892 7.78853 36.7549 7.81593C36.7275 7.85017 36.4534 7.83648 36.1451 7.78853C35.5491 7.69949 35.5217 7.67209 35.6313 7.26114C35.6792 7.08305 35.83 7.0762 36.4466 7.19949ZM27.944 7.39127C28.0194 7.76798 28.0125 7.77483 27.4302 7.86387C26.8067 7.95976 26.745 7.93237 26.7313 7.58305C26.7176 7.35017 26.7176 7.35017 27.1287 7.27483C27.8275 7.13785 27.8961 7.15155 27.944 7.39127ZM48.1967 7.67209C48.1967 7.70634 47.9364 8.11045 47.6144 8.56935C46.9429 9.5351 46.895 9.72004 47.2444 10.0146C47.3609 10.1104 47.4979 10.1926 47.5595 10.1926C47.7788 10.1926 48.0391 9.95291 48.4023 9.43237C48.6078 9.13099 48.827 8.82278 48.8956 8.74743C48.9572 8.67209 49.0531 8.54195 49.1011 8.46661L49.197 8.32278L49.519 8.54195C49.6972 8.65839 49.8411 8.77483 49.8411 8.79538C49.8411 8.85702 48.827 10.2885 48.6284 10.5146C48.2515 10.9324 47.6007 11.0625 47.0388 10.8365C46.3948 10.583 46.0317 9.71318 46.3057 9.06935C46.3537 8.94606 46.6689 8.46661 46.9977 8.01456L47.5938 7.17894L47.8953 7.39812C48.0597 7.51456 48.1967 7.63784 48.1967 7.67209ZM38.1937 7.58305L38.639 7.69949L38.6185 7.93922C38.6048 8.0625 38.5705 8.19949 38.5363 8.22689C38.5089 8.26114 38.2348 8.22689 37.9265 8.15839C37.3373 8.02826 37.3099 8.00086 37.4126 7.6036C37.4674 7.41867 37.5839 7.41867 38.1937 7.58305ZM26.0941 7.5762C26.1078 7.6036 26.1421 7.73373 26.1695 7.87072L26.2175 8.11045L25.6694 8.26114C25.3679 8.34333 25.1075 8.41182 25.0938 8.41182C25.0459 8.41182 24.8746 7.87072 24.9088 7.83648C24.9363 7.80908 25.9091 7.53511 26.0119 7.52826C26.0393 7.52141 26.0736 7.54195 26.0941 7.5762ZM40.3587 8.47346C40.3039 8.83648 40.2423 8.85702 39.7216 8.68579C39.1186 8.48716 39.0844 8.45292 39.1529 8.20634C39.2488 7.87072 39.2625 7.87072 39.8449 8.05566L40.3998 8.24059L40.3587 8.47346ZM51.4306 8.01456C51.4785 8.0625 51.6978 8.25428 51.917 8.43237C52.1294 8.6173 52.3076 8.80223 52.3076 8.84332C52.3007 9.06935 51.8211 9.41182 51.7457 9.24743C51.7389 9.22004 51.5471 9.0488 51.3347 8.85702C51.1154 8.67209 50.9373 8.48716 50.9373 8.43922C50.9373 8.36387 51.2593 7.93237 51.3141 7.93237C51.3278 7.93237 51.3826 7.97346 51.4306 8.01456ZM24.4087 8.29538C24.4567 8.41867 24.4909 8.54195 24.4909 8.5625C24.4909 8.6173 23.3947 8.98716 23.3604 8.94606C23.3399 8.93237 23.2851 8.80223 23.2234 8.66524C23.1001 8.37072 23.059 8.41182 23.7236 8.19949C24.2648 8.02826 24.3128 8.03511 24.4087 8.29538ZM35.0421 8.30223C36.9262 8.58305 38.0087 8.83648 39.701 9.39812C41.5029 9.99401 43.4967 10.9598 45.1136 12.0282C48.2447 14.0967 50.8688 16.8775 52.7186 20.1104C53.1777 20.8981 53.9587 22.5077 54.1574 23.0693C54.2465 23.3159 54.3356 23.5419 54.363 23.583C54.4931 23.7679 55.144 25.9803 55.3564 26.946C55.747 28.7542 55.836 29.6857 55.836 31.9734C55.836 34.1583 55.7881 34.7679 55.4592 36.4939C54.8837 39.5282 53.6436 42.5966 51.9787 45.124C49.4711 48.9254 45.7165 52.1035 41.6536 53.8569C40.5437 54.3363 39.6941 54.6582 39.6462 54.6103C39.5571 54.5281 39.7901 53.6993 39.9888 53.3911C40.3382 52.85 41.1055 52.2747 42.7499 51.3226C43.1267 51.1035 43.7913 50.7199 44.2229 50.4665C45.9495 49.4733 47.0525 48.6377 47.6212 47.898C48.0871 47.2953 49.2244 45.0076 50.0055 43.1035C50.2247 42.5761 50.4508 42.035 50.5056 41.9049C50.9578 40.8638 50.9715 39.0967 50.5536 35.5693C50.3412 33.7405 50.2453 33.5761 49.6081 33.8843C49.2655 34.0556 49.012 34.4597 48.8545 35.0967C48.7928 35.3158 48.6558 36.3775 48.5393 37.4528C48.4297 38.5282 48.32 39.5076 48.3063 39.624C48.2789 39.8021 48.3063 39.8638 48.4228 39.9323C48.738 40.0966 49.1422 40.4939 49.1765 40.6651C49.2176 40.8501 48.9915 41.4254 48.7928 41.672C48.3817 42.1651 48.0391 42.624 47.7514 43.035C47.1005 43.9802 46.8676 44.2747 46.4428 44.6925C45.8604 45.261 45.6 45.398 46.0043 44.9254C46.1756 44.7268 46.3674 44.4939 46.4359 44.4186C46.71 44.0761 48.6626 41.3021 48.7722 41.0898C48.9367 40.7747 48.8682 40.5693 48.5393 40.398C48.1145 40.1788 47.7034 40.2131 47.0594 40.5282C46.0933 41.0008 45.0314 41.9117 44.0722 43.1035C43.0993 44.309 42.5101 44.8501 42.0099 44.9939C41.8866 45.0281 41.4961 45.0898 41.1398 45.1309C39.7558 45.2816 38.3992 45.6035 37.5086 45.9939C37.1043 46.1788 36.1931 46.8569 35.734 47.3227C35.3298 47.7336 34.6721 48.5624 34.2336 49.2062C33.6581 50.0624 33.2059 51.1172 33.0483 51.9939C32.9318 52.6309 33.0757 54.3089 33.3635 55.6514L33.4183 55.8774H31.9932H30.5749L30.6092 55.7199C30.8216 54.8843 31.034 52.8911 30.9792 52.2473C30.9038 51.3843 30.3763 50.1035 29.6843 49.1035C27.7727 46.3638 26.423 45.5624 23.0795 45.1583C22.0998 45.0418 21.8326 44.9665 21.4763 44.7473C21.1611 44.5487 20.4554 43.7884 19.8183 42.9665C19.2633 42.2473 18.1876 41.2747 17.4066 40.7816C16.5776 40.2542 16.0089 40.1446 15.4745 40.398C14.9606 40.6514 15.0154 40.9049 15.8445 42.0282C16.1391 42.4323 16.6392 43.1309 16.9544 43.5829C17.2695 44.035 17.6395 44.5281 17.7697 44.6788C18.1876 45.1377 18.2836 45.261 18.2082 45.261C18.0712 45.261 17.0503 44.1788 16.6529 43.6103C16.4268 43.2953 16.0226 42.7405 15.7554 42.3843C14.988 41.3706 14.8305 41.0966 14.8305 40.7679C14.8305 40.4939 14.851 40.4597 15.2347 40.1788C15.4608 40.0145 15.6595 39.8501 15.6732 39.8158C15.6869 39.7747 15.6595 39.3775 15.6115 38.9254C15.5636 38.4734 15.4745 37.6241 15.4128 37.0419C15.2689 35.6378 15.1456 34.9871 14.9401 34.5556C14.7277 34.1104 14.6455 34.0076 14.3714 33.8706C14.0905 33.72 13.9192 33.7268 13.789 33.8706C13.6315 34.0556 13.6109 34.1583 13.467 35.3158C13.2135 37.3706 13.1587 38.1104 13.1587 39.4391C13.1587 40.9597 13.2135 41.2747 13.6657 42.3501C14.3166 43.9254 14.5427 44.4186 15.3306 46.0144L16.1665 47.6925L16.8174 48.35C17.6327 49.1651 18.3795 49.6788 20.6541 50.9802C23.1001 52.3774 23.8469 52.9459 24.162 53.6651C24.2785 53.9322 24.4155 54.6445 24.347 54.6445C24.3265 54.6445 23.8743 54.4733 23.3399 54.2678C19.7635 52.898 16.2761 50.4391 13.885 47.5898C13.8096 47.4939 13.6589 47.3227 13.5629 47.2131C12.6517 46.1651 11.0416 43.6583 10.4593 42.3843C9.41786 40.0761 8.95196 38.6651 8.53403 36.5282C8.19831 34.7884 8.15035 34.2337 8.1572 31.9734C8.1572 29.1378 8.34904 27.8022 9.17121 24.8981C9.67136 23.131 11.0348 20.3159 12.2612 18.5145C13.4259 16.7954 15.3238 14.7406 16.9201 13.4734C20.8391 10.357 25.087 8.6447 30.0405 8.17894C30.7736 8.11045 34.3432 8.19949 35.0421 8.30223ZM12.4941 8.5762L12.7134 8.80223L12.2475 9.22004C11.994 9.45291 11.7405 9.64469 11.6857 9.64469C11.6309 9.64469 11.5007 9.5488 11.3842 9.42551L11.1787 9.21318L11.3774 9.0351C11.9871 8.50086 12.179 8.34333 12.2201 8.34333C12.2475 8.34333 12.3708 8.44606 12.4941 8.5762ZM41.9825 8.85702C42.1264 8.91867 42.1332 9.04195 41.9962 9.30907L41.8866 9.50771L41.6331 9.39812C41.4961 9.33647 41.2494 9.24058 41.0918 9.18579C40.763 9.06935 40.7561 9.06935 40.9 8.72689L41.0028 8.48031L41.4344 8.6447C41.6673 8.73373 41.914 8.82962 41.9825 8.85702ZM22.7027 8.92551C22.7918 9.18579 22.7644 9.30223 22.5999 9.30223C22.5451 9.30223 22.3464 9.37757 22.1614 9.47346C21.9765 9.56935 21.7915 9.64469 21.7504 9.64469C21.6407 9.64469 21.4352 9.17209 21.5174 9.1036C21.6065 9.01456 22.3807 8.69264 22.504 8.68579C22.5657 8.68579 22.6479 8.78853 22.7027 8.92551ZM14.899 9.23373C15.6047 9.51456 15.9678 10.131 15.913 10.9529C15.8719 11.5282 15.6595 11.8844 15.173 12.2132C14.9127 12.3844 14.7825 12.4187 14.3646 12.4392C13.9398 12.4666 13.8164 12.4461 13.5013 12.2885C12.2269 11.6652 12.2612 9.87757 13.5629 9.26113C13.9877 9.05565 14.4331 9.0488 14.899 9.23373ZM43.298 9.48716L43.7913 9.73373L43.6817 10.0009C43.62 10.1447 43.5515 10.2611 43.5172 10.2611C43.3733 10.2611 42.5101 9.76798 42.5101 9.67894C42.5101 9.52826 42.6608 9.23373 42.7362 9.23373C42.7704 9.23373 43.0239 9.34332 43.298 9.48716ZM53.5751 9.93921L53.9176 10.2611L53.6573 10.5146L53.4038 10.7748L52.9105 10.2817L52.4172 9.78168L52.6501 9.54195L52.8831 9.30223L53.0544 9.45976C53.1503 9.54195 53.3832 9.75428 53.5751 9.93921ZM21.031 9.64469C21.0858 9.75428 21.1337 9.87072 21.1337 9.91182C21.1337 9.96661 20.2225 10.4666 20.1129 10.4666C20.0581 10.4666 19.832 10.0967 19.832 9.99401C19.832 9.91866 20.6884 9.44606 20.8391 9.43921C20.8871 9.43921 20.9693 9.52826 21.031 9.64469ZM51.0058 9.82277C51.1565 9.95976 51.2798 10.0967 51.2798 10.1241C51.2798 10.1584 50.9784 10.5283 50.6153 10.9461C50.2453 11.3707 49.8685 11.8091 49.7794 11.9187L49.6218 12.1173L49.9507 12.4187C50.1357 12.5899 50.3069 12.72 50.3412 12.7269C50.5056 12.7337 50.122 13.2748 49.9507 13.2748C49.9164 13.2748 49.5876 13.0077 49.2107 12.6858C48.6078 12.1584 48.5461 12.083 48.6284 11.9803C48.6832 11.9187 49.0737 11.4735 49.4985 10.9872C49.9164 10.494 50.3618 9.98031 50.4782 9.83647C50.5947 9.69264 50.6975 9.5762 50.7112 9.5762C50.718 9.5762 50.8551 9.68579 51.0058 9.82277ZM10.9252 9.89812C11.0416 9.99401 11.1307 10.1104 11.1307 10.1515C11.1307 10.2474 10.3017 11.083 10.2058 11.083C10.1167 11.083 9.76042 10.7269 9.76042 10.6447C9.76042 10.5693 10.5963 9.71318 10.6717 9.71318C10.6991 9.71318 10.8155 9.79538 10.9252 9.89812ZM44.8464 10.3296C45.1067 10.4803 45.326 10.631 45.3465 10.6584C45.3602 10.6858 45.3123 10.8091 45.2369 10.9324C45.0999 11.1515 44.956 11.2132 44.8738 11.0899C44.8532 11.0488 44.6957 10.9529 44.5244 10.8707C44.079 10.6447 44.0379 10.5693 44.1887 10.2885C44.2572 10.1584 44.3325 10.0556 44.3462 10.0556C44.3668 10.0556 44.5929 10.1789 44.8464 10.3296ZM19.4414 10.5283C19.5031 10.6378 19.5579 10.7474 19.5579 10.768C19.5579 10.8022 18.9755 11.1926 18.6878 11.3433C18.5576 11.4187 18.5234 11.3981 18.4 11.1926C18.3178 11.0693 18.2561 10.9461 18.2561 10.9255C18.2561 10.857 19.1057 10.3296 19.2153 10.3296C19.277 10.3296 19.3729 10.4187 19.4414 10.5283ZM54.7946 11.1926C55.3153 11.7474 55.329 11.8091 55.0481 12.0419C54.7672 12.268 54.7878 12.2748 54.2191 11.6173L53.8834 11.2337L54.0684 11.0282C54.178 10.9187 54.3013 10.8228 54.3493 10.8159C54.3972 10.8159 54.5959 10.9803 54.7946 11.1926ZM46.3537 11.2954C46.5592 11.4461 46.7648 11.5967 46.8196 11.6241C46.9155 11.6789 46.8744 11.7885 46.662 12.0693C46.5661 12.1858 46.5387 12.1789 46.0796 11.8707C45.8124 11.6926 45.5932 11.5282 45.5932 11.5077C45.5932 11.4392 45.881 11.0145 45.9289 11.0145C45.9563 11.0145 46.1482 11.1378 46.3537 11.2954ZM53.1982 11.8433C53.6299 12.3022 54.0135 12.7337 54.0547 12.8091C54.1026 12.9255 54.0821 12.9803 53.9176 13.1104C53.8012 13.1995 53.6847 13.2748 53.6573 13.2748C53.623 13.2748 53.4791 13.1447 53.3353 12.9871L53.0749 12.6995L52.102 13.6104L51.1291 14.5145L50.8482 14.2269L50.5673 13.9392L51.5128 13.0282C52.5337 12.0419 52.5268 12.0625 52.1431 11.7063C52.0472 11.6104 51.965 11.5077 51.965 11.4666C51.965 11.3913 52.3076 11.0145 52.3761 11.0145C52.3966 11.0145 52.7666 11.3913 53.1982 11.8433ZM9.69191 11.6584C9.69191 11.6995 9.49322 11.9461 9.26027 12.1995L8.83549 12.6721L8.56828 12.4392C8.34219 12.2406 8.31478 12.1926 8.397 12.1104C8.45181 12.0556 8.65735 11.8159 8.86289 11.5762L9.23287 11.1447L9.45896 11.3639C9.58914 11.4872 9.69191 11.6241 9.69191 11.6584ZM17.8999 11.494C17.9821 11.6036 18.0506 11.72 18.0506 11.7474C18.0438 11.7748 17.8314 11.9461 17.5779 12.1241L17.1051 12.4461L16.9201 12.2474C16.8174 12.1378 16.742 12.0214 16.7557 11.9803C16.79 11.8913 17.5779 11.3022 17.6806 11.2954C17.7149 11.2885 17.8177 11.3776 17.8999 11.494ZM11.9666 12.1584C12.3571 12.5282 12.8778 13.0282 13.1382 13.2748L13.5972 13.72L13.3506 13.9734C13.2204 14.1173 13.0696 14.2337 13.0285 14.2337C12.9806 14.2269 12.7134 14.0077 12.4256 13.7337C12.1379 13.4597 11.6172 12.9734 11.2677 12.6378C10.6991 12.1036 10.6443 12.0282 10.7265 11.9255C10.9937 11.5899 11.0964 11.494 11.1787 11.494C11.2266 11.494 11.5829 11.7954 11.9666 12.1584ZM47.8953 12.4598C48.1351 12.6515 48.3337 12.8228 48.3337 12.8433C48.3337 12.9187 48.046 13.2748 47.9843 13.2748C47.8473 13.2748 47.032 12.5762 47.0731 12.5008C47.1348 12.3913 47.3883 12.1104 47.4294 12.1104C47.4431 12.1104 47.6555 12.268 47.8953 12.4598ZM56.206 12.857L56.6239 13.3981L56.3704 13.6104C56.2266 13.7269 56.0964 13.8228 56.0758 13.8228C56.0553 13.8159 55.8634 13.583 55.6442 13.3022L55.24 12.7817L55.466 12.5488C55.5894 12.4187 55.7127 12.3159 55.7401 12.3159C55.7607 12.3159 55.973 12.5625 56.206 12.857ZM16.4405 12.5899L16.6461 12.8022L16.2692 13.1378C15.7691 13.583 15.6732 13.6104 15.4745 13.3707C15.3854 13.2611 15.3238 13.1515 15.3306 13.1241C15.3443 13.0625 16.1459 12.3913 16.2076 12.3844C16.2281 12.3844 16.3309 12.4803 16.4405 12.5899ZM8.19831 12.994L8.41755 13.1858L8.02017 13.7132C7.80778 14.0008 7.60909 14.2337 7.58853 14.2337C7.47891 14.2337 7.08838 13.9187 7.08838 13.8296C7.08838 13.6926 7.80778 12.7954 7.9174 12.7954C7.95166 12.7954 8.07498 12.8844 8.19831 12.994ZM10.5346 13.3365C10.5757 13.3776 10.5072 13.5214 10.3428 13.7132C10.1304 13.9734 10.0482 14.0282 9.85634 14.0282C9.67136 14.0282 9.60284 14.0625 9.54118 14.2063C9.45211 14.4049 9.52748 14.5967 9.71932 14.631C9.78098 14.6447 10.055 14.5282 10.3291 14.3707C10.9252 14.0214 11.2609 13.9597 11.5829 14.131C11.8981 14.2954 12.1242 14.7611 12.0556 15.1036C11.8981 15.9666 11.0074 16.5762 10.3428 16.2748C10.1235 16.1789 10.1235 16.131 10.3908 15.8022C10.562 15.5899 10.6511 15.5351 10.8361 15.5351C10.9731 15.5351 11.117 15.4803 11.1992 15.3981C11.3568 15.2406 11.3637 15.1721 11.2609 14.9734C11.1581 14.7885 10.9457 14.8365 10.3428 15.1858C9.68506 15.5693 9.3699 15.5762 8.99992 15.1995C8.76697 14.9666 8.73272 14.8981 8.73272 14.6104C8.73272 13.7817 9.56859 13.0214 10.2674 13.22C10.3771 13.2474 10.5004 13.3022 10.5346 13.3365ZM49.2929 13.6789L49.7383 14.083L49.5327 14.2954C49.4231 14.4118 49.3135 14.5008 49.2929 14.494C49.1833 14.446 48.4708 13.7885 48.4708 13.7337C48.4708 13.6515 48.7448 13.2748 48.7996 13.2748C48.827 13.2748 49.0531 13.4597 49.2929 13.6789ZM15.0634 13.7611C15.1593 13.8365 15.2415 13.9255 15.2415 13.9597C15.2415 14.0214 14.5153 14.7337 14.4125 14.7748C14.3235 14.8022 14.0083 14.5145 14.0083 14.3981C14.0083 14.3159 14.7345 13.6173 14.8236 13.6173C14.8579 13.6173 14.9606 13.6789 15.0634 13.7611ZM54.9727 13.9392C55.0892 14.083 55.1851 14.22 55.1851 14.2474C55.1851 14.2748 55.0207 14.4255 54.8289 14.583C54.6302 14.7337 54.3561 14.9529 54.2259 15.0556C53.8149 15.3776 53.2393 15.8296 52.9379 16.0693C52.7803 16.1926 52.6227 16.2817 52.5885 16.2543C52.5542 16.2337 52.424 16.0967 52.3076 15.946L52.0952 15.6789L52.9927 14.9734C53.4928 14.583 54.0547 14.1378 54.2465 13.9803C54.4452 13.8159 54.637 13.6858 54.685 13.6858C54.7261 13.6858 54.8563 13.8022 54.9727 13.9392ZM57.405 14.4803C57.6174 14.768 57.7887 15.0419 57.7887 15.083C57.7887 15.1584 57.357 15.4666 57.2611 15.4666C57.2269 15.4597 57.0419 15.2269 56.8432 14.9323L56.4869 14.4049L56.7404 14.1789C56.8774 14.0625 57.0008 13.9597 57.0076 13.9597C57.0145 13.9597 57.1994 14.1926 57.405 14.4803ZM6.95136 14.631L7.17745 14.8228L6.92395 15.2337C6.78692 15.4529 6.62249 15.7063 6.55397 15.7885L6.4375 15.946L6.14974 15.768L5.85513 15.5967L6.04012 15.3091C6.31418 14.8707 6.62934 14.4392 6.6773 14.4392C6.69785 14.4392 6.82118 14.5282 6.95136 14.631ZM50.5673 14.9666C50.7728 15.1858 50.9373 15.3981 50.9373 15.446C50.9373 15.4871 50.8414 15.5967 50.718 15.6789L50.5056 15.8365L50.1357 15.4323C49.937 15.2063 49.7725 14.994 49.7725 14.9597C49.7725 14.8707 50.0534 14.5762 50.1357 14.5762C50.1768 14.5762 50.3686 14.7543 50.5673 14.9666ZM13.8096 15.0967L13.9946 15.2748L13.8027 15.494C13.6931 15.6104 13.515 15.8091 13.4054 15.9392L13.2067 16.1721L12.9874 16.0077C12.871 15.9255 12.775 15.8159 12.775 15.7748C12.775 15.6721 13.4533 14.9186 13.5492 14.9186C13.5904 14.9186 13.7068 15.0008 13.8096 15.0967ZM56.2403 15.6995L56.3704 15.946L56.1101 16.5762C55.9662 16.9255 55.7949 17.3364 55.7332 17.4871C55.5551 17.8981 55.5277 18.0008 55.5825 18.0008C55.6099 18.0008 55.9525 17.7885 56.3499 17.5282C56.9596 17.131 57.083 17.0693 57.172 17.1447C57.2954 17.2543 57.5489 17.7132 57.5078 17.7543C57.405 17.8433 54.8152 19.5077 54.7741 19.5077C54.6644 19.5077 54.3493 18.8775 54.3835 18.7337C54.4041 18.6515 54.5822 18.1926 54.7809 17.7063C54.9796 17.2269 55.1235 16.8159 55.1029 16.7954C55.0824 16.7748 54.7398 16.9734 54.3424 17.2337C53.945 17.494 53.5956 17.6926 53.5614 17.6652C53.4791 17.6104 53.1982 17.1447 53.1982 17.0625C53.1982 17.0008 53.6025 16.7269 55.1098 15.7611C55.9799 15.2063 55.973 15.2063 56.2403 15.6995ZM58.5629 16.2817C58.741 16.583 58.8849 16.8501 58.8849 16.8844C58.8849 16.9392 58.3368 17.2748 58.3025 17.2337C58.234 17.1584 57.6516 16.131 57.6516 16.083C57.6516 16.0214 58.0627 15.7406 58.1655 15.7406C58.2066 15.7406 58.3847 15.9871 58.5629 16.2817ZM8.28053 16.0145C8.50662 16.0967 8.50662 16.1652 8.25312 16.5351C8.08869 16.768 7.99962 16.8364 7.85574 16.8364C7.62279 16.8364 7.49947 16.946 7.49947 17.1515C7.49947 17.3501 7.6639 17.4803 7.86944 17.4255C7.95851 17.4049 8.20516 17.2406 8.41755 17.0693C9.02733 16.5625 9.60969 16.5693 9.95912 17.083C10.5209 17.9049 9.47267 19.3775 8.57513 19.0351C8.34904 18.946 8.34904 18.9186 8.56143 18.6036C8.65735 18.4666 8.73272 18.3227 8.73272 18.2817C8.73272 18.2474 8.84919 18.2063 8.98622 18.1926C9.43156 18.1584 9.58229 17.5967 9.17121 17.5351C9.09584 17.5214 8.82864 17.6789 8.54088 17.8912C7.93796 18.3501 7.68445 18.4118 7.26652 18.2132C6.73211 17.9529 6.60879 17.4186 6.92395 16.7817C7.22541 16.1721 7.82148 15.8365 8.28053 16.0145ZM51.7868 16.3912C52.1157 16.8364 52.1226 16.8433 51.9924 16.9803C51.7183 17.2817 51.6567 17.268 51.3415 16.857C50.903 16.2885 50.9099 16.3091 51.1223 16.1173C51.225 16.0282 51.3484 15.9529 51.3826 15.9529C51.4237 15.9529 51.6019 16.1515 51.7868 16.3912ZM5.83458 16.3638C5.99901 16.4666 6.05382 16.5419 6.02642 16.6241C5.9442 16.8433 5.50571 17.583 5.4372 17.631C5.34813 17.6858 4.82742 17.4597 4.82742 17.3638C4.82742 17.2543 5.4646 16.22 5.53312 16.22C5.56737 16.22 5.7044 16.2885 5.83458 16.3638ZM12.5763 16.4323C12.686 16.5077 12.775 16.6036 12.775 16.6378C12.775 16.6721 12.6175 16.9049 12.4256 17.1447L12.0762 17.5899L11.8638 17.4392C11.7405 17.357 11.6309 17.2817 11.6172 17.2748C11.5623 17.2269 12.2543 16.2885 12.3434 16.2885C12.364 16.2885 12.4667 16.3502 12.5763 16.4323ZM52.842 17.8227C52.9995 18.0556 53.1297 18.2953 53.1297 18.3501C53.1297 18.4392 52.8077 18.6858 52.6981 18.6858C52.657 18.6858 52.0335 17.809 52.0335 17.7543C52.0335 17.6926 52.4103 17.3912 52.4788 17.3912C52.5199 17.3912 52.6775 17.583 52.842 17.8227ZM59.5563 18.0967C59.7139 18.4118 59.8441 18.7063 59.8441 18.7406C59.8441 18.7817 59.7619 18.8433 59.6591 18.8775C59.5495 18.9118 59.4193 18.9666 59.3508 18.994C59.2686 19.0282 59.1932 18.946 59.0288 18.6241C58.9191 18.3981 58.7821 18.1515 58.741 18.083C58.6245 17.9049 58.6931 17.768 58.9671 17.6378C59.0904 17.5762 59.2069 17.5214 59.2275 17.5214C59.248 17.5214 59.3987 17.7817 59.5563 18.0967ZM11.5075 17.9049C11.6034 17.9666 11.6788 18.0488 11.6788 18.0967C11.672 18.22 11.1376 19.0282 11.0553 19.0282C10.9594 19.0282 10.5826 18.8022 10.5826 18.7474C10.5826 18.6378 11.1718 17.7953 11.254 17.7953C11.302 17.7953 11.4185 17.8433 11.5075 17.9049ZM5.05352 18.268C5.10833 18.3227 4.57392 19.5077 4.49171 19.5077C4.32727 19.5077 3.93674 19.2885 3.93674 19.1995C3.93674 19.1378 4.06007 18.8501 4.2108 18.5488L4.48486 18.0008L4.74521 18.1036C4.88224 18.1652 5.01926 18.2337 5.05352 18.268ZM6.27307 18.8638C6.51287 18.9803 6.50601 19.0282 6.184 19.6721C6.07438 19.8912 5.99216 20.0762 6.00586 20.0899C6.06753 20.1378 6.47176 20.3296 6.52657 20.3296C6.56083 20.3296 6.68415 20.1173 6.80748 19.857C7.02672 19.3844 7.03357 19.3775 7.21171 19.4597C7.64335 19.6447 7.64335 19.6378 7.4241 20.1447C7.30763 20.3981 7.23911 20.631 7.25967 20.6652C7.30078 20.7337 7.77352 20.9118 7.79408 20.8638C7.80778 20.857 7.9174 20.6173 8.04758 20.3433C8.1709 20.0762 8.30793 19.8501 8.33534 19.8501C8.39015 19.8501 8.80123 20.0419 8.86289 20.0967C8.88345 20.1173 8.1435 21.8159 8.07498 21.8981C8.04073 21.9392 7.6776 21.7885 5.76606 20.8912L5.02611 20.5419L5.12203 20.3159C5.48516 19.4734 5.87569 18.7543 5.96476 18.7543C6.01957 18.7543 6.15659 18.8022 6.27307 18.8638ZM53.8149 19.3844C53.9656 19.6515 54.0821 19.9118 54.0615 19.9597C54.0273 20.0488 53.6162 20.2953 53.5751 20.2474C53.4997 20.1584 53.0612 19.3022 53.0612 19.2406C53.0612 19.1858 53.438 18.8912 53.5203 18.8912C53.5271 18.8912 53.6573 19.1104 53.8149 19.3844ZM10.5346 19.4323C10.6374 19.4871 10.7196 19.5693 10.7196 19.6173C10.7196 19.7542 10.24 20.6036 10.1647 20.6036C10.0345 20.6036 9.69191 20.3912 9.69191 20.3159C9.69191 20.2474 10.0619 19.5556 10.1921 19.3844C10.2332 19.3364 10.2811 19.309 10.3017 19.3159C10.3222 19.3296 10.425 19.3844 10.5346 19.4323ZM57.8503 19.4803C58.4875 19.6652 59.0219 20.4049 59.0219 21.0899C59.0219 21.5145 58.5766 22.3707 58.4327 22.2268C58.4053 22.2063 58.3231 22.0351 58.2409 21.857C58.1175 21.5899 58.1038 21.4871 58.1518 21.3022C58.3642 20.5899 57.5557 19.9529 56.9048 20.3159C56.3704 20.6036 56.2882 21.2405 56.7267 21.6789C57.0556 22.0077 57.1241 21.9597 56.9322 21.5282L56.7678 21.1447L57.0693 21.0008C57.2406 20.9186 57.3844 20.8638 57.3981 20.8844C57.4118 20.8981 57.5763 21.2679 57.7681 21.6994C57.9942 22.2131 58.097 22.5145 58.0559 22.5625C57.9394 22.7063 57.4324 22.7885 57.0487 22.7268C56.158 22.5762 55.5072 21.7405 55.6236 20.8981C55.6784 20.4871 55.9593 19.9597 56.2334 19.7542C56.7198 19.3844 57.2337 19.2953 57.8503 19.4803ZM60.3716 19.8501C60.7211 20.6104 60.7279 20.6515 60.4265 20.7816C60.2826 20.8364 60.1318 20.8707 60.0907 20.857C60.0222 20.8296 59.57 19.8227 59.57 19.6995C59.57 19.6515 60.0291 19.3844 60.1181 19.3707C60.1387 19.3707 60.2552 19.5899 60.3716 19.8501ZM3.96415 20.0214C4.10118 20.0762 4.2108 20.1515 4.2108 20.1789C4.2108 20.2542 3.79286 21.3159 3.73805 21.3707C3.68324 21.4323 3.11458 21.2268 3.11458 21.1447C3.11458 21.083 3.51196 20.0693 3.56677 19.9734C3.61473 19.8981 3.68324 19.9049 3.96415 20.0214ZM54.685 21.0214C54.8015 21.2611 54.9042 21.5077 54.9042 21.5625C54.9111 21.6515 54.5754 21.8364 54.4109 21.8364C54.3835 21.8364 54.2671 21.631 54.1437 21.3707C54.0204 21.1173 53.9108 20.8912 53.8971 20.8638C53.8628 20.8022 54.3082 20.5282 54.3972 20.5556C54.4315 20.5693 54.5617 20.7748 54.685 21.0214ZM9.69876 21.0556C9.8632 21.1378 9.89745 21.1858 9.85634 21.309C9.79468 21.5214 9.42471 22.2474 9.3836 22.2474C9.30138 22.2474 8.86974 22.0488 8.86974 22.0077C8.86974 21.8844 9.34934 20.946 9.41786 20.946C9.45896 20.946 9.58229 20.994 9.69876 21.0556ZM61.1733 21.8912C61.2692 22.1789 61.3514 22.4734 61.3514 22.5351C61.3514 22.6036 61.2418 22.6857 61.0499 22.7474L60.7416 22.8501L60.5566 22.2953C60.4539 21.9871 60.3579 21.6926 60.3374 21.6447C60.31 21.5625 60.6731 21.3638 60.8855 21.357C60.9677 21.357 61.0499 21.5077 61.1733 21.8912ZM4.9713 21.6447C5.12203 21.6857 5.23851 21.7611 5.23851 21.809C5.23851 21.8638 5.16314 22.1036 5.06722 22.357C4.9713 22.6036 4.89594 22.8364 4.89594 22.8638C4.89594 22.9392 5.36183 23.0899 5.47146 23.0488C5.51256 23.0282 5.61533 22.8227 5.68385 22.5967C5.75236 22.3638 5.83458 22.1584 5.86198 22.1447C5.90994 22.1104 6.33473 22.2405 6.4238 22.3159C6.4512 22.3433 6.41695 22.5282 6.34158 22.7337C6.10863 23.3638 6.09493 23.3296 6.73896 23.5556C7.06098 23.6652 7.32818 23.7679 7.34874 23.7816C7.40355 23.8433 7.14319 24.5077 7.06783 24.5077C7.01987 24.5077 6.39639 24.3022 5.68385 24.0556C4.96445 23.8022 4.31357 23.583 4.2245 23.5625C4.13543 23.5488 4.04637 23.494 4.03266 23.4529C4.00526 23.3844 4.35468 22.2885 4.58763 21.6789C4.64244 21.5419 4.63559 21.5419 4.9713 21.6447ZM3.30642 21.9803C3.38863 22.0145 3.45715 22.083 3.45715 22.1378C3.45715 22.2679 3.10773 23.3433 3.06662 23.3433C3.05291 23.3433 2.90218 23.309 2.7309 23.2679C2.37463 23.1789 2.37463 23.2063 2.68294 22.3296C2.87478 21.7953 2.84737 21.809 3.30642 21.9803ZM55.4249 22.6994C55.5414 22.9803 55.6305 23.2337 55.6305 23.2611C55.6305 23.2885 55.5209 23.3638 55.3907 23.4255C55.2057 23.5077 55.1303 23.5214 55.0755 23.4597C54.9865 23.3638 54.7055 22.6173 54.7055 22.4803C54.7055 22.3912 55.007 22.1857 55.1509 22.1789C55.192 22.1789 55.3153 22.4118 55.4249 22.6994ZM8.904 22.6857C9.03418 22.7405 9.1438 22.8159 9.1438 22.857C9.1438 22.8912 9.06158 23.1446 8.95881 23.4118L8.78068 23.9049L8.54088 23.8638C8.4107 23.8433 8.27367 23.8022 8.23942 23.7679C8.18461 23.7131 8.56828 22.5899 8.6368 22.5899C8.65735 22.5899 8.77382 22.6378 8.904 22.6857ZM61.831 24.0419C61.9475 24.4803 61.9612 24.6035 61.8927 24.6515C61.783 24.7131 61.3445 24.8022 61.3103 24.7611C61.2692 24.72 60.9403 23.5282 60.9677 23.5008C60.9746 23.4871 61.1047 23.4392 61.2555 23.3844C61.598 23.2611 61.6323 23.3022 61.831 24.0419ZM2.68979 23.9255C2.81997 23.9529 2.90904 24.0077 2.88848 24.0488C2.87478 24.0967 2.80626 24.3775 2.73775 24.6789C2.66924 24.9803 2.59387 25.2474 2.57332 25.2748C2.55276 25.3022 2.38833 25.2885 2.21705 25.2542L1.90188 25.1857L1.9841 24.7953C2.15538 23.9871 2.2239 23.8159 2.34722 23.8501C2.40888 23.8638 2.56647 23.9049 2.68979 23.9255ZM56.0484 24.4734C56.1512 24.7953 56.2197 25.0761 56.1991 25.0898C56.1854 25.1035 56.0484 25.1378 55.8977 25.1583L55.6305 25.2063L55.4729 24.7337C55.3907 24.4734 55.3222 24.22 55.3222 24.1789C55.3222 24.1104 55.6647 23.9118 55.8155 23.8981C55.8429 23.8912 55.9456 24.1515 56.0484 24.4734ZM8.37644 24.4118C8.56143 24.4666 8.56828 24.6104 8.397 25.1583L8.26682 25.5693L7.98592 25.5625C7.82833 25.5625 7.69131 25.5419 7.6776 25.5282C7.6502 25.5008 7.84889 24.7063 7.94481 24.4529C7.97906 24.3638 8.12979 24.3501 8.37644 24.4118ZM5.68385 25.1583C6.25251 25.4871 6.54027 25.9734 6.54027 26.6172C6.54027 27.1515 6.37584 27.5487 6.00586 27.8775C5.4646 28.3707 4.72465 28.4665 4.08747 28.1446C3.71065 27.9529 3.54621 27.7679 3.33382 27.3227C2.90218 26.3981 3.45715 25.2337 4.4506 24.994C4.83428 24.9049 5.36183 24.9734 5.68385 25.1583ZM62.2626 25.9049C62.3243 26.22 62.3791 26.5214 62.3791 26.5761C62.3791 26.6857 61.783 26.857 61.7282 26.7679C61.6597 26.6583 61.4816 25.583 61.5158 25.5008C61.5432 25.4186 61.694 25.3707 62.0365 25.3364C62.1187 25.3296 62.1736 25.4734 62.2626 25.9049ZM59.9057 25.6583C60.4881 25.9666 60.7964 26.4871 60.8033 27.1652C60.8033 28.1378 60.1181 28.8296 59.1589 28.8364C57.1926 28.8501 56.7952 26.1378 58.6793 25.5282C58.974 25.4323 59.5906 25.5008 59.9057 25.6583ZM56.5143 26.1583C56.6719 26.857 56.665 26.8844 56.3773 26.9392C56.2403 26.9597 56.1032 26.9597 56.0758 26.9255C56.0484 26.8981 55.9868 26.6994 55.9456 26.494C55.8977 26.2885 55.8497 26.0556 55.8292 25.9734C55.8018 25.857 55.8292 25.809 55.9868 25.7542C56.3636 25.6172 56.3978 25.6378 56.5143 26.1583ZM2.40888 25.9734C2.42944 25.9871 2.38148 26.2885 2.31296 26.6378L2.18964 27.2816L1.88818 27.2679C1.72374 27.2611 1.57301 27.2337 1.55246 27.2131C1.5182 27.1789 1.64838 26.1652 1.71689 25.9529C1.73745 25.8844 1.82652 25.8707 2.06631 25.9049C2.2376 25.9255 2.39518 25.9597 2.40888 25.9734ZM7.9174 26.1857L8.09554 26.2268L7.97906 26.7885L7.86944 27.3501L7.58168 27.3433C7.4241 27.3433 7.28022 27.3227 7.25967 27.309C7.24597 27.2885 7.29392 27.0077 7.36929 26.6789C7.48576 26.1857 7.53372 26.083 7.62279 26.1104C7.69131 26.1309 7.82148 26.1652 7.9174 26.1857ZM62.5367 27.535C62.5572 27.6241 62.5983 27.9255 62.6257 28.2131L62.6669 28.7337L62.4476 28.7816C62.0023 28.8707 61.9886 28.857 61.9406 28.3912C61.9132 28.1583 61.8721 27.857 61.8515 27.7131C61.8104 27.4392 61.8584 27.4049 62.2832 27.3912C62.4545 27.3844 62.5093 27.4186 62.5367 27.535ZM56.8911 28.0556C56.9459 28.3638 56.9665 28.6378 56.9459 28.6583C56.9254 28.6789 56.7884 28.7131 56.6376 28.7337L56.3636 28.7679L56.3156 28.4734C56.2951 28.309 56.2677 28.035 56.2608 27.8707C56.2471 27.5967 56.2677 27.5624 56.4184 27.5145C56.7541 27.4186 56.7884 27.4597 56.8911 28.0556ZM2.00465 27.9939C2.08002 28.0419 2.08687 28.1652 2.01835 28.6926C1.97725 29.0419 1.92929 29.3433 1.91558 29.357C1.90188 29.3707 1.75115 29.357 1.57301 29.3296L1.251 29.2816L1.29211 28.8296C1.38118 27.946 1.38803 27.9323 1.66893 27.9323C1.80596 27.9323 1.95669 27.9597 2.00465 27.9939ZM7.6639 28.2405C7.6639 28.3912 7.6502 28.6583 7.63649 28.8364L7.60909 29.1652H7.32133C7.1569 29.1652 7.01302 29.1446 6.99246 29.1104C6.97876 29.083 6.99246 28.8022 7.03357 28.4939L7.10894 27.9255L7.38984 27.946C7.67075 27.9666 7.67075 27.9666 7.6639 28.2405ZM4.36153 29.1994C4.49856 29.2885 4.64929 29.4597 4.69725 29.5761C4.75206 29.6857 4.81372 29.7816 4.84113 29.7816C4.86853 29.7816 5.16314 29.6583 5.48516 29.5076C5.81402 29.357 6.08808 29.2337 6.10178 29.2337C6.15659 29.2337 6.12919 29.8501 6.06753 30.0008C6.02642 30.1104 5.80717 30.2542 5.38924 30.4597C5.04667 30.6309 4.77946 30.7885 4.79317 30.8159C4.81372 30.8364 5.08778 30.8843 5.40979 30.9117L5.99216 30.9597V31.3296C5.99216 31.5693 5.9579 31.7131 5.90994 31.7337C5.79347 31.7748 2.72405 31.535 2.66924 31.4871C2.64868 31.4597 2.66239 31.0419 2.70349 30.5624C2.77201 29.7542 2.79256 29.6583 2.9707 29.4392C3.21735 29.1309 3.41604 29.0282 3.79972 29.0282C4.01896 29.0282 4.18339 29.0761 4.36153 29.1994ZM57.1104 29.8844C57.1309 30.1857 57.1378 30.4528 57.1241 30.4802C57.1104 30.5145 56.9596 30.535 56.7952 30.535H56.5006L56.4732 29.9665C56.4595 29.6241 56.4732 29.3844 56.5212 29.3501C56.5554 29.3227 56.6993 29.309 56.8295 29.3159L57.0693 29.3364L57.1104 29.8844ZM62.8107 30.1104C62.845 30.4665 62.8518 30.7679 62.8381 30.7885C62.8176 30.8022 62.6532 30.8227 62.4682 30.8296L62.1393 30.8433L62.0982 30.1926C62.0776 29.7748 62.0913 29.5213 62.1325 29.4871C62.1736 29.4597 62.3311 29.446 62.4819 29.4529L62.7559 29.4734L62.8107 30.1104ZM7.4241 29.7748C7.49947 29.7816 7.51317 29.8912 7.47891 30.3433C7.45151 30.6515 7.40355 30.9186 7.36244 30.946C7.32818 30.9665 7.1843 30.9734 7.04727 30.9597L6.80062 30.9323L6.84858 30.3707C6.87599 30.0693 6.91025 29.7953 6.9308 29.7611C6.9445 29.7337 7.04727 29.7268 7.14319 29.7405C7.24597 29.7542 7.36929 29.7748 7.4241 29.7748ZM61.1664 30.4323C61.1938 30.7679 61.2075 31.22 61.2007 31.4254L61.1801 31.8022L60.8581 31.8227L60.5292 31.8433V31.2611V30.672H60.1867H59.8441V31.1789V31.6857L59.5563 31.7131C59.3919 31.7337 59.2412 31.7337 59.2138 31.72C59.1795 31.7063 59.1589 31.4597 59.1589 31.1789V30.672H58.5081H57.8572V30.2611V29.8501L59.248 29.8296C60.0085 29.8227 60.7416 29.809 60.8718 29.8159H61.1116L61.1664 30.4323ZM1.86762 30.6857L1.84707 31.3912H1.5045C1.10027 31.3912 1.09342 31.3775 1.16193 30.5556L1.20989 29.9871H1.54561H1.88818L1.86762 30.6857ZM57.1583 31.7748L57.1378 32.3501H56.8637H56.5897L56.5691 31.7542L56.5486 31.1583L56.8089 31.1378C56.9528 31.1241 57.0967 31.1378 57.1241 31.1583C57.1515 31.1789 57.172 31.4597 57.1583 31.7748ZM62.845 32.1926L62.8244 32.898L62.5024 32.9186L62.1736 32.9391V32.22V31.4939H62.5161H62.8655L62.845 32.1926ZM7.43095 32.1789V32.7953H7.12264H6.81433V32.1789V31.5624H7.12264H7.43095V32.1789ZM1.84707 32.6926C1.87448 33.0556 1.88133 33.3706 1.85392 33.3912C1.82652 33.4186 1.66208 33.4391 1.48395 33.4391L1.16193 33.446L1.14138 32.8364C1.12767 32.5008 1.13453 32.1857 1.15508 32.1309C1.17563 32.0761 1.30581 32.0419 1.49765 32.0419H1.79911L1.84707 32.6926ZM4.29987 32.7611C4.64244 32.9254 4.83428 33.2679 4.88224 33.7885L4.91649 34.2405L5.50571 34.2268L6.09493 34.2131L6.11549 34.5967C6.13604 34.9528 6.12234 34.9871 5.97846 35.0145C5.79347 35.0487 2.88848 35.261 2.86793 35.2405C2.82682 35.1926 2.7309 33.6583 2.7583 33.4802C2.78571 33.2679 3.18994 32.7816 3.38863 32.7063C3.59417 32.6309 4.09433 32.6583 4.29987 32.7611ZM57.172 33.2885C57.172 33.4871 57.1515 33.7679 57.1309 33.9049C57.083 34.1583 57.083 34.1652 56.7747 34.1652H56.4664L56.5075 33.6994C56.5349 33.446 56.5554 33.172 56.5554 33.083C56.5554 32.9528 56.5897 32.9323 56.8637 32.9323H57.172V33.2885ZM7.45836 33.4528C7.47891 33.5145 7.49947 33.7885 7.49947 34.0624V34.5624L7.25282 34.6104C7.11579 34.6309 6.97876 34.6309 6.95136 34.5967C6.92395 34.5693 6.88284 34.2885 6.86914 33.9802L6.83488 33.4186L7.04727 33.3912C7.16375 33.3775 7.29392 33.3569 7.33503 33.3569C7.38299 33.3501 7.4378 33.3912 7.45836 33.4528ZM62.6806 33.5898C62.797 33.6378 62.8244 34.083 62.7491 34.672L62.7011 34.9871H62.3722C61.9886 34.9871 62.0023 35.0282 62.0776 34.0761L62.1256 33.5487H62.3517C62.475 33.5487 62.6189 33.5693 62.6806 33.5898ZM1.96354 34.7747C1.99095 35.1309 2.00465 35.4391 1.9841 35.4528C1.9704 35.4665 1.81966 35.5008 1.64838 35.5145C1.29896 35.5556 1.31266 35.5898 1.23045 34.6309C1.18934 34.1241 1.21674 34.0967 1.71004 34.1241L1.91558 34.1309L1.96354 34.7747ZM59.5906 34.8912C60.3922 35.0282 61.0499 35.1446 61.0499 35.1515C61.0568 35.1515 61.0294 35.3775 60.9883 35.6446L60.9198 36.1378L60.2278 36.2816C59.8509 36.3638 59.3302 36.4665 59.0767 36.5076C58.8164 36.5556 58.6108 36.6104 58.6108 36.6309C58.6108 36.672 59.2275 37.0487 60.2483 37.6241L60.6114 37.8227L60.5635 38.172C60.495 38.7405 60.4607 38.8227 60.2963 38.8227C60.2209 38.8227 59.7208 38.7405 59.1932 38.6514C58.6656 38.5556 57.9942 38.4391 57.6996 38.398L57.1652 38.3227L57.2063 38.0419C57.2748 37.6241 57.3091 37.5213 57.3981 37.5213C57.4461 37.5213 57.8298 37.583 58.2614 37.6583C58.6862 37.7336 59.0699 37.7953 59.1178 37.7953C59.1589 37.7953 58.8027 37.5693 58.3368 37.2953L57.4804 36.7953L57.4941 36.5008C57.5009 36.3364 57.5215 36.1926 57.542 36.172C57.5763 36.1378 58.3025 35.9734 58.9191 35.8638C59.1452 35.8227 59.3576 35.7679 59.385 35.7405C59.4124 35.7131 59.1041 35.6378 58.6999 35.5761C57.5763 35.3912 57.6448 35.4254 57.6927 35.1309C57.7613 34.6926 57.7887 34.6446 57.9668 34.6446C58.0627 34.6446 58.789 34.7542 59.5906 34.8912ZM57.0213 34.8158C57.0487 34.8432 56.9048 35.9597 56.8706 36.0008C56.85 36.0145 56.713 36.0076 56.5554 35.9802L56.2677 35.9323L56.3088 35.6104C56.3362 35.4391 56.3704 35.1652 56.3978 35.0076L56.4321 34.7131L56.7198 34.7542C56.8706 34.7816 57.0076 34.809 57.0213 34.8158ZM7.70501 35.7473C7.80093 36.3706 7.78037 36.4254 7.38984 36.4254H7.1706L7.09523 35.8775C7.04727 35.5761 7.03357 35.2953 7.05413 35.261C7.07468 35.22 7.21171 35.1926 7.35559 35.1926H7.62279L7.70501 35.7473ZM62.6326 35.6994C62.66 35.72 62.5435 36.5761 62.475 36.898C62.4408 37.0487 62.4202 37.0556 62.1187 37.0076C61.9406 36.9802 61.7899 36.9528 61.7762 36.946C61.7556 36.9254 61.8995 35.8021 61.9406 35.6789C61.9612 35.6104 62.0502 35.5967 62.29 35.6309C62.4613 35.6515 62.6189 35.6857 62.6326 35.6994ZM2.15538 36.3227C2.15538 36.4117 2.18964 36.7062 2.2376 36.9665C2.28556 37.2336 2.30611 37.4665 2.28556 37.4871C2.265 37.5076 2.10742 37.5419 1.93614 37.5624L1.62783 37.6035L1.55246 37.1241C1.40173 36.2199 1.42228 36.1789 1.93614 36.1583C2.12798 36.1515 2.15538 36.172 2.15538 36.3227ZM56.7267 36.6309C56.7541 36.672 56.7198 36.946 56.6513 37.2473C56.528 37.8295 56.4938 37.8569 56.0964 37.7542C55.9114 37.7062 55.9045 37.6788 56.0484 37.0487L56.158 36.5624H56.4184C56.5691 36.5624 56.7061 36.5967 56.7267 36.6309ZM8.06128 37.5487C8.12979 37.8432 8.17775 38.0967 8.16405 38.1104C8.1572 38.1241 8.02017 38.1583 7.86259 38.1925L7.58168 38.261L7.46521 37.7679C7.40355 37.5008 7.34188 37.2405 7.32133 37.1925C7.28707 37.0898 7.54057 36.9734 7.76667 36.9939C7.91055 37.0076 7.94481 37.0693 8.06128 37.5487ZM6.78007 38.1857C6.88284 38.5213 6.98561 38.8775 7.02672 38.9871C7.1569 39.3912 7.14319 39.4049 6.32103 39.6446C5.89624 39.761 5.26591 39.9528 4.9302 40.0556C4.58763 40.1651 4.21765 40.261 4.10803 40.2747C3.92989 40.2953 3.90934 40.2747 3.82712 39.9528C3.77916 39.7679 3.75861 39.5898 3.78601 39.5624C3.81342 39.535 4.32727 39.3706 4.92334 39.1994C5.52627 39.0282 6.06753 38.8569 6.13604 38.8227C6.24566 38.761 6.24566 38.7336 6.12234 38.3364C6.05382 38.1104 5.99216 37.8775 5.99216 37.8295C5.99216 37.761 6.28677 37.6378 6.55397 37.5967C6.58138 37.5898 6.68415 37.8569 6.78007 38.1857ZM62.29 37.7542C62.3311 37.7953 62.1119 38.9665 62.0434 39.0419C62.0023 39.0898 61.4405 39.0076 61.3788 38.946C61.3514 38.9186 61.3856 38.7268 61.598 37.8021C61.6323 37.6583 61.6597 37.6446 61.9406 37.6788C62.1119 37.6925 62.2695 37.7268 62.29 37.7542ZM2.60757 38.7884C2.68979 39.1309 2.73775 39.4254 2.71035 39.446C2.64183 39.5213 2.14853 39.6583 2.10742 39.6172C2.05946 39.5761 1.81966 38.5556 1.81281 38.398C1.81281 38.3227 1.89503 38.2542 2.03891 38.2131C2.42259 38.1035 2.44999 38.1309 2.60757 38.7884ZM56.0964 38.3501C56.2334 38.3843 56.3499 38.446 56.3499 38.4871C56.3499 38.6788 56.0347 39.5761 55.9662 39.5761C55.8497 39.5761 55.4592 39.4323 55.4592 39.3843C55.4592 39.2816 55.7675 38.2747 55.8018 38.2747C55.8223 38.2747 55.9525 38.309 56.0964 38.3501ZM8.51347 39.261C8.60939 39.583 8.6505 39.8227 8.60939 39.8638C8.57513 39.898 8.44496 39.9391 8.30793 39.9597L8.07498 40.0008L7.92425 39.4871C7.84204 39.2062 7.77352 38.9391 7.77352 38.898C7.77352 38.8295 8.16405 38.6857 8.28053 38.7131C8.32163 38.7199 8.4244 38.9665 8.51347 39.261ZM59.8304 40.172C60.0359 40.2199 60.0222 40.3364 59.7413 41.0829C59.6111 41.4323 59.4878 41.809 59.4673 41.9117C59.4399 42.0213 59.3987 42.124 59.3645 42.1446C59.3097 42.1788 58.8849 42.0555 58.7958 41.9802C58.7684 41.9528 58.8232 41.6994 58.9191 41.4254C59.0151 41.1446 59.0836 40.8843 59.063 40.8432C59.0493 40.8021 58.926 40.7336 58.789 40.6925C58.5081 40.6035 58.4944 40.624 58.3368 41.1172C58.1723 41.6377 58.1723 41.6377 57.8229 41.5145C57.6516 41.4597 57.5146 41.4049 57.5146 41.398C57.5146 41.3843 57.59 41.1651 57.6859 40.9049C57.7818 40.6446 57.8572 40.4254 57.8572 40.4186C57.8572 40.3912 57.3707 40.1925 57.3091 40.1925C57.2748 40.1925 57.1652 40.4391 57.0556 40.7405C56.9528 41.0419 56.8226 41.2884 56.7747 41.2884C56.7267 41.2884 56.5828 41.2473 56.4526 41.1925L56.2197 41.0898L56.4801 40.3158C56.6239 39.8912 56.7815 39.4597 56.8158 39.3569L56.8911 39.172L58.282 39.6583C59.0493 39.9186 59.7413 40.1514 59.8304 40.172ZM61.8104 39.8227C61.831 39.8775 61.7693 40.1788 61.6871 40.5008L61.5227 41.0898L61.2486 41.0419C60.8033 40.9734 60.8033 40.9734 60.9814 40.3295C61.0773 40.0076 61.1595 39.7131 61.1801 39.6651C61.2144 39.5624 61.7625 39.6994 61.8104 39.8227ZM55.8018 40.2131C55.8018 40.3775 55.4181 41.2884 55.3496 41.2884C55.2331 41.2884 54.8426 41.1446 54.8426 41.0966C54.8426 41.0761 54.9179 40.8706 55.007 40.6446C55.0961 40.4117 55.1851 40.1788 55.2057 40.1103C55.24 40.0145 55.2879 40.0076 55.5209 40.0693C55.6784 40.1103 55.8018 40.172 55.8018 40.2131ZM3.10773 40.672C3.18994 40.9802 3.27216 41.2679 3.29271 41.3227C3.32012 41.3843 3.24475 41.4528 3.08032 41.5213C2.75145 41.6583 2.66239 41.6583 2.61443 41.5076C2.40203 40.8158 2.29241 40.3706 2.32667 40.3364C2.38148 40.2884 2.77886 40.1377 2.88163 40.1309C2.92274 40.124 3.02551 40.3706 3.10773 40.672ZM9.04788 40.7884C9.34249 41.446 9.33564 41.5213 9.01362 41.6446L8.73957 41.7542L8.52717 41.2062C8.41755 40.9049 8.32163 40.6446 8.32163 40.6309C8.32163 40.6035 8.73272 40.4117 8.82178 40.4049C8.84919 40.398 8.95196 40.5693 9.04788 40.7884ZM7.1569 40.8227C7.36244 40.9254 7.54743 41.0966 7.69131 41.3227C7.9037 41.6377 7.92425 41.6994 7.89685 42.1103C7.85574 42.7473 7.64335 43.0624 7.06098 43.3364C6.50601 43.5966 5.4235 44.0281 5.32072 44.0281C5.27276 44.0281 5.1974 43.9254 5.14259 43.8021C4.9302 43.2816 4.89594 43.3295 5.73866 43.0007C6.15659 42.8364 6.62249 42.6446 6.76637 42.5761C7.1843 42.3706 7.25967 41.9391 6.93765 41.6309C6.72526 41.4391 6.51287 41.4597 5.81402 41.7405C4.65614 42.2062 4.53967 42.2542 4.51911 42.2336C4.50541 42.2199 4.4369 42.0555 4.35468 41.8569L4.21765 41.5076L5.07407 41.1514C5.54682 40.9597 5.99901 40.7747 6.08123 40.7405C6.36214 40.6309 6.84173 40.6651 7.1569 40.8227ZM61.139 41.7131C61.2555 41.7542 61.2829 41.8021 61.2486 41.8912C61.2212 41.9528 61.1321 42.2199 61.0431 42.4734C60.954 42.7336 60.8581 42.9734 60.8238 43.0076C60.7622 43.0692 60.3511 42.9665 60.2278 42.8569C60.1935 42.8295 60.2483 42.5692 60.3579 42.2679C60.4607 41.9734 60.5566 41.6925 60.5703 41.6446C60.5977 41.5555 60.7827 41.5761 61.139 41.7131ZM54.9522 41.8021C55.1851 41.898 55.192 41.898 55.0961 42.124C54.8768 42.6446 54.6713 43.0007 54.6096 43.0007C54.5685 42.9939 54.4383 42.9391 54.315 42.8775L54.1026 42.761L54.3424 42.2268C54.4794 41.9391 54.6165 41.6994 54.6507 41.6994C54.685 41.6994 54.8152 41.7473 54.9522 41.8021ZM57.405 42.535C58.1655 42.8775 58.8164 43.1857 58.8643 43.2199C58.9534 43.2884 58.8917 43.4597 58.467 44.3295C58.0833 45.0966 57.7133 45.3843 57.035 45.4459C56.0279 45.5418 55.2331 44.8295 55.2331 43.8227C55.2331 43.4391 55.2742 43.2816 55.562 42.6377C55.747 42.2336 55.9251 41.9049 55.9662 41.9049C56.0005 41.9049 56.6513 42.1857 57.405 42.535ZM3.78601 42.672C3.90934 42.9871 4.00526 43.2747 4.00526 43.309C4.00526 43.3501 3.86823 43.4323 3.69695 43.5007L3.38178 43.6103L3.31327 43.4254C3.27901 43.3227 3.16939 43.0487 3.07347 42.8158C2.9844 42.5829 2.90904 42.3775 2.90904 42.3501C2.90904 42.2953 3.32012 42.1172 3.45715 42.1103C3.52566 42.1103 3.64213 42.3021 3.78601 42.672ZM9.81524 42.5829C9.93856 42.8432 10.0345 43.0829 10.0345 43.1172C10.0345 43.1788 9.55488 43.4391 9.52063 43.398C9.47952 43.3569 9.1301 42.6377 9.07529 42.4871C9.02047 42.3432 9.04103 42.3021 9.19861 42.2199C9.52063 42.0418 9.58229 42.0829 9.81524 42.5829ZM54.1574 43.446C54.2739 43.5076 54.363 43.5692 54.363 43.5966C54.363 43.7199 53.8423 44.5761 53.7601 44.5761C53.6504 44.5761 53.2668 44.3843 53.2668 44.3227C53.2668 44.3021 53.3558 44.1377 53.4654 43.9665C53.5751 43.7953 53.6847 43.5829 53.7121 43.4939C53.7669 43.3158 53.8834 43.3021 54.1574 43.446ZM60.262 43.5898C60.5018 43.6857 60.5361 43.7268 60.5018 43.8638C60.447 44.0761 60.0428 44.9117 59.9811 44.9528C59.9126 44.9939 59.4604 44.809 59.4056 44.7199C59.3645 44.6583 59.8783 43.4802 59.9469 43.4802C59.9606 43.4802 60.1044 43.5281 60.262 43.5898ZM10.6443 44.1583C10.795 44.4186 10.9252 44.6583 10.9252 44.6925C10.9252 44.761 10.562 44.987 10.4524 44.987C10.3839 44.987 9.82894 44.0966 9.82894 43.9802C9.82894 43.9254 10.2058 43.6994 10.3154 43.6925C10.3428 43.6857 10.4867 43.898 10.6443 44.1583ZM8.9177 44.0144C9.12325 44.1651 10.0002 45.6309 9.93856 45.7336C9.91801 45.761 9.55488 45.9802 9.1301 46.2199C8.70531 46.4528 8.08183 46.8021 7.75297 46.9939C7.04727 47.3911 7.13634 47.4322 6.60879 46.5281C6.19085 45.809 6.10178 45.3843 6.29362 45.0213C6.4375 44.7542 6.85544 44.5076 7.16375 44.5076C7.34874 44.5076 7.4241 44.4597 7.54057 44.2816C7.83518 43.8227 8.47921 43.6994 8.9177 44.0144ZM4.57392 44.5418C4.71095 44.8638 4.82742 45.1514 4.82742 45.1788C4.82742 45.2473 4.43004 45.4665 4.30672 45.4665C4.16284 45.4665 3.63528 44.2953 3.7449 44.2199C3.84768 44.1446 4.23135 43.9665 4.27931 43.9665C4.29987 43.9597 4.43004 44.2268 4.57392 44.5418ZM53.2668 45.035C53.3627 45.0966 53.4517 45.1583 53.4586 45.1651C53.5134 45.2062 52.8488 46.1514 52.7734 46.1514C52.7255 46.1514 52.6022 46.0829 52.4994 45.9939L52.3076 45.8432L52.6022 45.3775C52.7597 45.124 52.9379 44.9186 52.9927 44.9186C53.0544 44.9186 53.1777 44.9733 53.2668 45.035ZM11.5966 45.7131C11.7542 45.9596 11.8844 46.1857 11.8844 46.2199C11.8844 46.2816 11.5212 46.5624 11.4459 46.5624C11.3911 46.5624 10.7881 45.6377 10.7881 45.5555C10.7881 45.487 11.1307 45.2679 11.2403 45.261C11.2814 45.261 11.439 45.4665 11.5966 45.7131ZM55.6168 46.0898C56.343 46.5487 56.9459 46.9322 56.9596 46.9459C57.0145 46.9939 56.8911 47.2953 56.7404 47.4802L56.576 47.6788L55.6236 47.0761C53.9656 46.0281 53.8149 45.9322 53.8149 45.8912C53.8149 45.8158 54.1917 45.261 54.2465 45.261C54.2739 45.261 54.8905 45.6309 55.6168 46.0898ZM59.3645 45.4665C59.5152 45.5418 59.6385 45.6377 59.6385 45.6788C59.6385 45.809 59.0767 46.8364 59.0082 46.8364C58.926 46.8364 58.4738 46.5692 58.4738 46.5213C58.4738 46.4802 59.0493 45.3295 59.0767 45.3295C59.0836 45.3295 59.2206 45.3912 59.3645 45.4665ZM5.36183 46.1583C5.44405 46.3227 5.58108 46.5624 5.64959 46.6857C5.72496 46.809 5.78662 46.9391 5.78662 46.9733C5.78662 47.0487 5.30702 47.3295 5.2248 47.3021C5.19055 47.2884 5.02611 47.0281 4.86168 46.7199L4.55337 46.1514L4.80687 45.987C4.95075 45.8912 5.09463 45.8227 5.13574 45.8364C5.16999 45.8432 5.27276 45.987 5.36183 46.1583ZM52.3898 46.6651C52.4172 46.6994 52.3898 46.8021 52.335 46.8911C52.2322 47.0418 52.1637 47.1309 51.8554 47.5076L51.7115 47.6857L51.4991 47.5281C51.3758 47.4459 51.2798 47.3432 51.2798 47.3021C51.2798 47.2679 51.4374 47.035 51.6293 46.7953L51.9718 46.3569L52.1568 46.4733C52.2596 46.5418 52.3624 46.624 52.3898 46.6651ZM10.7333 46.8843C10.9731 47.2131 10.9868 47.1035 10.5552 48.4733C10.4182 48.9048 10.3222 49.2679 10.3359 49.2816C10.3496 49.3021 10.6854 49.0624 11.069 48.7542L11.7747 48.1994L11.9666 48.4254C12.2132 48.7268 12.2612 48.8843 12.1379 48.9802C12.0762 49.0281 11.7884 49.2473 11.4938 49.4733C11.1992 49.6994 10.9457 49.898 10.9252 49.9185C10.9046 49.9391 10.6168 50.1651 10.2811 50.4254L9.67821 50.898L9.44526 50.6309C9.32194 50.487 9.21916 50.3021 9.21231 50.2268C9.21231 50.1514 9.34934 49.6446 9.52063 49.0966C9.68506 48.5555 9.81524 48.1035 9.80153 48.0898C9.79468 48.0829 9.47267 48.3158 9.08899 48.6172C8.69846 48.9185 8.36274 49.1651 8.33534 49.1651C8.30793 49.1651 8.18461 49.035 8.06128 48.8774C7.84889 48.6035 7.84204 48.5829 7.95851 48.4665C8.27367 48.1514 10.3565 46.5692 10.4387 46.5829C10.4867 46.5898 10.6237 46.7268 10.7333 46.8843ZM12.6723 47.1788C12.8436 47.398 12.9806 47.6103 12.9806 47.6514C12.9806 47.7268 12.6517 48.0007 12.5626 48.0007C12.5284 48.0007 12.3503 47.7953 12.1584 47.535L11.8021 47.0761L12.0282 46.8911C12.1516 46.7884 12.2749 46.7199 12.3023 46.7405C12.3365 46.761 12.501 46.9528 12.6723 47.1788ZM58.6793 47.4802C58.6793 47.5898 58.0353 48.6172 57.9668 48.6172C57.8572 48.6172 57.4461 48.3363 57.4461 48.261C57.4461 48.2199 57.59 47.9528 57.7681 47.6583L58.097 47.1309L58.3847 47.2679C58.5492 47.3501 58.6793 47.4459 58.6793 47.4802ZM54.4726 47.4391C54.8563 47.6377 55.1577 48.0007 55.2879 48.4254C55.4112 48.85 55.4181 49.0076 55.3153 49.4048C55.2194 49.7747 54.7946 50.2815 54.4246 50.4665C54.1369 50.6172 53.2393 50.6583 53.164 50.5281C53.0818 50.398 53.6299 49.8226 53.8902 49.7679C54.1711 49.7131 54.4794 49.3843 54.5343 49.0761C54.6302 48.5829 54.1985 48.0692 53.6915 48.0692C53.2051 48.0692 52.8488 48.4185 52.8146 48.9391C52.8009 49.1309 52.7323 49.2953 52.6159 49.4254C52.5199 49.535 52.3966 49.6788 52.3418 49.7542C52.2527 49.8774 52.239 49.8706 52.1294 49.6103C51.7526 48.7336 52.2048 47.6788 53.1023 47.3432C53.4586 47.2131 54.1163 47.261 54.4726 47.4391ZM6.48546 48.0692C6.9171 48.7405 6.91025 48.7199 6.64304 48.9185C6.51972 49.0144 6.38269 49.0966 6.34843 49.0966C6.31418 49.0966 6.1703 48.9048 6.01957 48.6651C5.87569 48.4322 5.71811 48.1994 5.67015 48.1446C5.61533 48.0966 5.58793 48.0213 5.60163 47.9733C5.63589 47.8706 6.14974 47.5829 6.20455 47.6446C6.22511 47.672 6.34843 47.8637 6.48546 48.0692ZM51.1154 47.9733L51.3484 48.1514L50.9647 48.5898C50.7523 48.8295 50.5467 49.0281 50.5056 49.0281C50.4166 49.0281 50.1151 48.7542 50.1151 48.6651C50.1151 48.6035 50.7934 47.7953 50.8482 47.7953C50.8619 47.7953 50.9852 47.8774 51.1154 47.9733ZM13.8164 48.5213C14.0151 48.7268 14.1864 48.9254 14.2001 48.9528C14.207 48.9802 14.1179 49.0898 14.0014 49.1994L13.789 49.4048L13.378 48.9665L12.9669 48.535L13.1587 48.3363C13.2615 48.2268 13.3711 48.1377 13.3985 48.1377C13.4259 48.1377 13.6109 48.309 13.8164 48.5213ZM57.3159 49.0418C57.4667 49.124 57.5831 49.2062 57.5831 49.2268C57.5831 49.2816 57.1583 49.898 56.9459 50.1583L56.7747 50.3569L56.528 50.1925C56.3841 50.0898 56.2882 49.9802 56.3019 49.9185C56.3293 49.8158 56.9802 48.8911 57.0282 48.8911C57.0419 48.8911 57.172 48.9596 57.3159 49.0418ZM49.889 49.3158C49.9781 49.398 50.0466 49.5007 50.0466 49.5418C50.0466 49.5829 49.8616 49.7952 49.6424 50.0076L49.2381 50.398L49.0257 50.2199C48.9093 50.124 48.8133 50.0213 48.8133 49.987C48.8133 49.9117 49.5876 49.1651 49.6629 49.1651C49.704 49.1651 49.7999 49.2336 49.889 49.3158ZM7.6639 49.8158C7.87629 50.0966 8.04758 50.35 8.04758 50.3843C8.04758 50.4459 7.61594 50.8089 7.54743 50.8089C7.50632 50.8089 6.74581 49.7952 6.74581 49.7405C6.74581 49.6857 7.1706 49.3089 7.23226 49.3021C7.25967 49.3021 7.45151 49.535 7.6639 49.8158ZM13.2478 49.9048C13.2683 49.9117 13.2478 50.0213 13.1998 50.1446C13.1176 50.3637 13.1176 50.3706 13.5698 50.8021L14.0288 51.2404L14.2686 51.1514C14.5016 51.0692 14.5084 51.0761 14.7825 51.35C14.9606 51.5213 15.0428 51.6514 15.0017 51.6925C14.9606 51.7267 14.5975 51.9322 14.1796 52.1446C13.7685 52.3637 13.3026 52.6103 13.1519 52.6925C12.4599 53.0829 12.083 53.2747 12.0008 53.2747C11.9597 53.2678 11.7542 53.1103 11.5555 52.9117L11.1924 52.5555L11.5692 51.7336C11.7679 51.2815 12.0693 50.6309 12.2269 50.2952C12.3845 49.9528 12.5421 49.6035 12.5763 49.5144L12.6449 49.35L12.9326 49.6172C13.0902 49.761 13.2341 49.8911 13.2478 49.9048ZM15.0565 49.7952C15.2689 49.987 15.4471 50.172 15.4471 50.2062C15.4471 50.2952 15.1799 50.672 15.1182 50.672C15.0908 50.672 14.8716 50.4939 14.6318 50.2747L14.2001 49.8774L14.3851 49.6583C14.4879 49.535 14.5907 49.4391 14.6181 49.4391C14.6455 49.4391 14.8373 49.5966 15.0565 49.7952ZM51.6293 50.398C52.0061 50.7542 52.5405 51.2473 52.8009 51.4939L53.2805 51.9391L53.0064 52.2473L52.7323 52.5555L52.4035 52.2473C52.2185 52.0829 51.917 51.8021 51.7252 51.624C51.5402 51.4459 51.136 51.0692 50.8345 50.7815L50.2864 50.2678L50.5605 49.9939C50.7043 49.8363 50.8551 49.7199 50.8825 49.7268C50.9099 49.7405 51.2456 50.0418 51.6293 50.398ZM48.6078 50.6035L48.7585 50.8089L48.3954 51.1377C47.8816 51.6035 47.8747 51.6035 47.6418 51.3843C47.5321 51.2815 47.4499 51.172 47.4568 51.1446C47.4979 51.0487 48.2926 50.398 48.3749 50.398C48.4228 50.398 48.5256 50.4939 48.6078 50.6035ZM56.1375 50.7336L56.3773 50.9254L56.2403 51.1035C55.7744 51.7062 55.5551 51.9665 55.4935 51.9665C55.4592 51.9665 55.3222 51.8774 55.192 51.7678L54.9522 51.5692L55.2262 51.2404C55.3838 51.0555 55.562 50.8295 55.6236 50.7199C55.7812 50.487 55.8429 50.487 56.1375 50.7336ZM16.4405 51.0213C16.6872 51.2131 16.8859 51.3911 16.8859 51.4117C16.879 51.4733 16.557 51.8363 16.509 51.8363C16.4474 51.8363 15.7691 51.3226 15.6595 51.1994C15.5841 51.1035 15.591 51.0555 15.7348 50.8843C15.8171 50.7678 15.913 50.6788 15.9472 50.6788C15.9746 50.672 16.2007 50.8295 16.4405 51.0213ZM8.8766 51.3706C9.08899 51.6103 9.28083 51.8432 9.30823 51.8911C9.3699 51.9939 9.04103 52.3843 8.89715 52.3843C8.84919 52.3843 8.6642 52.2062 8.47921 51.987C7.9174 51.3226 7.93796 51.3911 8.19831 51.1583C8.32163 51.0418 8.44496 50.9459 8.46551 50.9459C8.48607 50.9459 8.67105 51.1377 8.8766 51.3706ZM50.8003 52.172L51.8417 53.3569L51.5813 53.624C51.4374 53.7678 51.2661 53.8911 51.2045 53.8911C51.1428 53.8911 50.6564 53.7815 50.1151 53.6514C49.5807 53.5144 49.1217 53.4254 49.1011 53.4391C49.0806 53.4596 49.2792 53.7199 49.5327 54.0076C49.7931 54.3021 50.0603 54.6035 50.1288 54.6788C50.2453 54.8226 50.2453 54.8295 49.937 55.0829L49.6218 55.35L49.4779 55.1856C49.3066 55.0007 48.3954 53.9733 48.1145 53.6514C48.0186 53.5418 47.8267 53.3226 47.6897 53.172C47.5595 53.0213 47.4431 52.8774 47.4431 52.8569C47.4431 52.8295 47.5801 52.6993 47.7445 52.5624L48.0528 52.3158L49.1148 52.5829C49.6972 52.7267 50.1905 52.8295 50.211 52.8089C50.2384 52.7815 49.6561 52.0898 49.1765 51.5761C49.1285 51.5281 49.0874 51.4596 49.0874 51.4254C49.0874 51.3295 49.5739 50.9391 49.6698 50.9596C49.7109 50.9733 50.2247 51.5144 50.8003 52.172ZM47.2855 51.9939C47.2444 52.1035 46.4702 52.6583 46.3605 52.6583C46.2578 52.6583 45.9837 52.2404 46.0522 52.172C46.0865 52.1377 46.2989 51.9733 46.5181 51.8089L46.9292 51.5076L47.1279 51.6994C47.2444 51.8158 47.306 51.9322 47.2855 51.9939ZM17.7971 52.0555C18.0301 52.2199 18.2424 52.3706 18.2767 52.3911C18.3452 52.4391 18.1671 52.8295 18.0506 52.898C17.9889 52.9391 17.0229 52.3432 17.0229 52.2678C17.0229 52.2336 17.3312 51.7678 17.3518 51.7678C17.3655 51.7678 17.5642 51.898 17.7971 52.0555ZM54.8289 52.3295L55.0413 52.5555L54.5891 53.0144C54.3424 53.2747 54.1026 53.4802 54.0615 53.4802C53.9382 53.4802 53.5751 53.0829 53.6367 53.0213C53.6641 52.987 53.8628 52.7747 54.0752 52.535C54.2808 52.3021 54.4931 52.1103 54.5343 52.1103C54.5754 52.1103 54.7055 52.213 54.8289 52.3295ZM16.1185 52.4939L16.4063 52.7336L15.5704 53.7678L14.7414 54.7952L14.9675 54.9733C15.0977 55.0761 15.2484 55.1925 15.3032 55.2336C15.3923 55.3021 15.3854 55.3432 15.2415 55.5624C15.1456 55.6993 15.036 55.8089 15.0017 55.8089C14.9058 55.8089 13.0971 54.3569 13.0628 54.2541C13.0491 54.213 13.1313 54.0761 13.2409 53.9528L13.4396 53.7267L13.7342 53.9802C13.8987 54.1172 14.0494 54.2336 14.0768 54.2336C14.1042 54.2336 14.481 53.7884 14.9264 53.2404C15.3717 52.6925 15.7554 52.2473 15.7828 52.2473C15.8102 52.2473 15.9609 52.3569 16.1185 52.4939ZM10.3017 52.9459C10.5278 53.1856 10.7196 53.4048 10.7196 53.4459C10.7196 53.4802 10.6306 53.6172 10.5141 53.7404L10.3154 53.9665L10.0208 53.6719C9.85634 53.5076 9.6371 53.2747 9.52748 53.1514L9.32879 52.9322L9.54118 52.7267C9.66451 52.6172 9.78783 52.5213 9.82209 52.5213C9.85634 52.5213 10.0687 52.713 10.3017 52.9459ZM45.6686 52.7404C45.7371 52.8295 45.7919 52.9459 45.7987 53.0007C45.7987 53.0829 44.9423 53.6856 44.819 53.6856C44.7984 53.6856 44.7162 53.5692 44.634 53.4322C44.5175 53.2336 44.5038 53.172 44.5792 53.1309C44.6271 53.1035 44.8258 52.9665 45.0108 52.8363C45.4219 52.5555 45.4973 52.5418 45.6686 52.7404ZM19.3592 53.0692C19.6196 53.2267 19.832 53.3774 19.832 53.4185C19.832 53.535 19.6264 53.8911 19.5579 53.8911C19.4483 53.8911 18.6604 53.4048 18.6261 53.3089C18.5919 53.2199 18.77 52.7952 18.8454 52.7952C18.8659 52.7952 19.0989 52.9185 19.3592 53.0692ZM47.1416 54.0418C47.3951 54.4322 47.7788 55.0213 47.998 55.3637C48.2241 55.6993 48.4023 56.0076 48.4023 56.0555C48.4023 56.0966 48.0391 56.3706 47.6007 56.6651L46.7922 57.1925L46.6072 56.9665C46.4976 56.8432 46.4154 56.713 46.4154 56.6856C46.4154 56.6582 46.6346 56.487 46.895 56.3158C47.1622 56.1377 47.3746 55.9802 47.3746 55.9596C47.3746 55.898 47.0868 55.4665 47.0525 55.4665C47.032 55.4665 46.8196 55.5898 46.5798 55.7404L46.1413 56.0144L45.9632 55.7336C45.8672 55.5829 45.7987 55.4459 45.8124 55.4391C45.8261 55.4254 46.0248 55.2884 46.2578 55.1308L46.6894 54.8432L46.5318 54.6103C46.4496 54.4802 46.3537 54.3706 46.3126 54.3706C46.2783 54.3706 46.0591 54.4939 45.833 54.6445C45.6069 54.7952 45.3877 54.9185 45.3397 54.9185C45.2027 54.9185 44.9492 54.5007 45.0177 54.398C45.0793 54.2952 46.5524 53.35 46.6415 53.3432C46.6689 53.3432 46.895 53.6583 47.1416 54.0418ZM44.2092 53.9528C44.1955 54.0144 43.9626 54.1788 43.6954 54.3226L43.1952 54.5829L43.0582 54.3569C42.9828 54.2336 42.928 54.1035 42.9417 54.0692C42.9486 54.0418 43.1747 53.898 43.435 53.7541L43.9146 53.5007L44.0722 53.6651C44.1613 53.761 44.2229 53.8911 44.2092 53.9528ZM53.4449 53.8843L53.5888 54.0624L53.0886 54.5281L52.5885 54.9939L52.3829 54.7747C52.2664 54.6514 52.1705 54.5213 52.1705 54.4802C52.1705 54.4459 52.3761 54.2199 52.6296 53.987C53.1297 53.535 53.1571 53.5281 53.4449 53.8843ZM20.9282 53.9322C21.1885 54.0624 21.4078 54.213 21.4078 54.261C21.4078 54.3774 21.2639 54.7815 21.2297 54.7815C21.12 54.7815 20.2293 54.2815 20.2019 54.2062C20.1677 54.1172 20.3458 53.6856 20.4143 53.6856C20.4349 53.6856 20.661 53.7952 20.9282 53.9322ZM11.809 54.4048L12.2543 54.8363L12.083 55.0829C11.994 55.2199 11.8912 55.3295 11.8569 55.3295C11.7747 55.3295 10.9183 54.5761 10.8772 54.4596C10.8361 54.3569 11.1718 53.9596 11.2951 53.9596C11.3362 53.9596 11.5692 54.1582 11.809 54.4048ZM18.5096 54.1035C19.1057 54.3911 19.4551 55.0213 19.2633 55.4733L19.1811 55.6719L18.8248 55.4665C18.5302 55.2952 18.4685 55.2267 18.448 55.0418C18.4069 54.6035 17.8451 54.5076 17.7903 54.9254C17.7766 55.0487 17.8656 55.2062 18.1123 55.487C18.5165 55.9459 18.5782 56.0555 18.5987 56.2884C18.633 56.6719 18.585 56.7952 18.3315 57.0487C18.0917 57.2884 18.0301 57.3158 17.7217 57.3158C17.3244 57.3158 17.0983 57.2336 16.7283 56.9528C16.3241 56.6445 16.1939 56.2815 16.3104 55.8226C16.3652 55.6308 16.4063 55.6308 16.7762 55.8569C16.9886 55.987 17.0983 56.1034 17.1325 56.2404C17.2079 56.5966 17.6464 56.7267 17.7423 56.4185C17.7971 56.261 17.7149 56.1171 17.3312 55.6651C16.8037 55.0487 16.79 54.5692 17.2901 54.1446C17.571 53.9048 18.0712 53.8911 18.5096 54.1035ZM42.5101 54.5761L42.6471 54.85L42.2018 55.0487C41.4892 55.3706 41.5029 55.3706 41.3796 55.0829C41.3248 54.9459 41.2768 54.8226 41.2768 54.8021C41.2768 54.7678 42.236 54.3158 42.3182 54.3089C42.3456 54.3021 42.4347 54.4254 42.5101 54.5761ZM22.6753 54.7404C22.9014 54.8363 23.0864 54.9391 23.0864 54.9665C23.0795 55.1651 22.9562 55.4665 22.8877 55.4665C22.7712 55.4665 21.9422 55.1377 21.8668 55.0624C21.8326 55.0281 21.8394 54.898 21.8874 54.7473C21.9833 54.4596 22.0107 54.4596 22.6753 54.7404ZM45.0108 55.5692C45.2301 55.9802 45.5452 56.5624 45.7028 56.8569C45.8672 57.1514 46.0111 57.4391 46.018 57.4939C46.0317 57.5623 45.7576 57.7473 45.2027 58.0349C44.7436 58.2815 44.3325 58.4802 44.2983 58.4802C44.2298 58.4802 44.0174 58.0966 44.0174 57.9733C44.0174 57.9322 44.2229 57.7884 44.4696 57.6651C44.7162 57.5418 44.9355 57.398 44.956 57.3432C44.9971 57.2336 44.771 56.8363 44.6683 56.8363C44.634 56.8363 44.449 56.9322 44.2572 57.0418C44.0722 57.1514 43.8803 57.2473 43.8324 57.2473C43.7707 57.2473 43.4693 56.8226 43.4693 56.7336C43.4693 56.7199 43.668 56.5966 43.9146 56.4596C44.1613 56.3226 44.3599 56.1788 44.3599 56.1377C44.3599 56.0281 44.1338 55.6719 44.0585 55.6719C44.0242 55.6719 43.7981 55.7815 43.5515 55.9185C43.3048 56.0487 43.0719 56.1445 43.0308 56.1308C42.9143 56.0829 42.6677 55.5898 42.7499 55.5555C42.791 55.5418 43.1884 55.3363 43.6405 55.0966C44.264 54.761 44.4833 54.6719 44.5381 54.7336C44.5792 54.7815 44.7916 55.1514 45.0108 55.5692ZM40.8246 55.2678C40.8863 55.4254 40.9342 55.5555 40.9205 55.5692C40.9068 55.5761 40.6602 55.6719 40.3656 55.7747C39.7764 55.987 39.7216 55.9733 39.6599 55.5966L39.6188 55.3569L40.1258 55.1788C40.3998 55.0829 40.6465 55.0007 40.667 54.9939C40.6945 54.9939 40.763 55.1172 40.8246 55.2678ZM51.8417 55.1719C51.9444 55.2747 52.0335 55.3911 52.0266 55.4254C52.0266 55.5076 51.2113 56.1993 51.0538 56.261C50.9989 56.2815 50.8825 56.2062 50.7728 56.0829C50.6016 55.8774 50.5399 55.6719 50.6495 55.6719C50.6769 55.6719 50.8825 55.5213 51.1086 55.3295C51.3347 55.1445 51.5471 54.987 51.5813 54.987C51.6224 54.987 51.7389 55.0692 51.8417 55.1719ZM24.5046 55.4048C24.7787 55.4733 24.7787 55.4802 24.7444 55.7541C24.7239 55.9048 24.6896 56.0418 24.669 56.0692C24.6416 56.0897 24.3881 56.0281 24.0935 55.9322C23.5797 55.761 23.566 55.7541 23.5728 55.5418C23.5934 55.1445 23.6276 55.1172 23.9428 55.2267C24.1004 55.2815 24.3539 55.3637 24.5046 55.4048ZM20.8254 55.3432C20.9967 55.4254 21.12 55.5281 21.1063 55.5692C21.0721 55.6514 20.2773 57.3706 19.9758 58.0144C19.8594 58.2747 19.7292 58.4802 19.6949 58.4802C19.6333 58.4802 19.0989 58.2336 19.0304 58.1788C19.0098 58.1651 20.2636 55.3911 20.3458 55.261C20.4075 55.1651 20.476 55.1788 20.8254 55.3432ZM13.3711 55.7062C13.6931 55.9528 13.8576 56.1171 13.8233 56.1719C13.6931 56.3911 13.4944 56.6308 13.4465 56.6308C13.4122 56.6308 13.1656 56.4528 12.8915 56.2404C12.6175 56.0281 12.3845 55.8432 12.3708 55.8363C12.3297 55.8021 12.7202 55.3295 12.7956 55.3295C12.8367 55.3295 13.0902 55.5007 13.3711 55.7062ZM39.1049 55.8295C39.1392 55.9322 39.1529 56.0624 39.1323 56.1103C39.0844 56.2336 38.0772 56.4733 37.995 56.3843C37.9607 56.35 37.9128 56.2267 37.8854 56.1103C37.8443 55.8911 37.8443 55.8911 38.2759 55.7541C38.8446 55.5692 39.0227 55.5898 39.1049 55.8295ZM26.053 55.85L26.5532 55.9733L26.5052 56.2473C26.4847 56.4048 26.4573 56.535 26.4436 56.5487C26.4162 56.576 25.4021 56.3432 25.3131 56.2884C25.2103 56.2267 25.3679 55.6514 25.4775 55.6993C25.5186 55.713 25.779 55.7815 26.053 55.85ZM37.3373 56.2952C37.3647 56.4459 37.3647 56.5897 37.3441 56.6103C37.2756 56.6788 36.2479 56.8363 36.1999 56.7815C36.1177 56.6925 36.0766 56.2952 36.1383 56.2541C36.1999 56.213 37.029 56.035 37.2139 56.0213C37.2551 56.0144 37.3099 56.1377 37.3373 56.2952ZM27.8755 56.2267L28.3414 56.3021L28.3003 56.5829C28.2729 56.7404 28.2386 56.8774 28.2249 56.8911C28.2112 56.9048 27.944 56.8706 27.6288 56.8158L27.0602 56.7199L27.0807 56.487C27.1013 56.1514 27.1493 56.0692 27.2794 56.1103C27.3479 56.1308 27.6151 56.1788 27.8755 56.2267ZM50.211 56.4459C50.3138 56.576 50.3892 56.7062 50.3823 56.7404C50.3823 56.8089 49.4026 57.5213 49.3135 57.5213C49.2861 57.5213 49.1696 57.398 49.0668 57.2473L48.875 56.9802L49.1354 56.8089C49.2792 56.7199 49.519 56.5487 49.6698 56.4322C49.8205 56.3158 49.9644 56.2199 49.9918 56.2199C50.0192 56.2199 50.1151 56.3226 50.211 56.4459ZM35.5559 56.6377C35.5833 56.7884 35.5902 56.9254 35.5765 56.9322C35.5696 56.9459 35.2956 56.9802 34.9804 57.0213C34.3638 57.0897 34.3706 57.0966 34.3432 56.6993L34.3227 56.4596L34.6652 56.4185C34.8571 56.398 35.1174 56.3706 35.2613 56.3706C35.5011 56.3569 35.5079 56.3637 35.5559 56.6377ZM29.6911 56.4665L30.1091 56.5144V56.8158V57.124L29.5472 57.076C29.2321 57.0487 28.958 57.0144 28.9306 56.9939C28.8964 56.9802 28.8758 56.8432 28.8758 56.6925C28.8758 56.3911 28.8895 56.3843 29.6911 56.4665ZM33.706 56.8363V57.1445L33.11 57.1651L32.507 57.1856V56.8774V56.5692L32.9729 56.5418C33.7403 56.5007 33.706 56.487 33.706 56.8363ZM14.8716 56.8158C15.0565 56.9596 15.2895 57.124 15.3786 57.1856L15.5498 57.2952L15.358 57.5829L15.1662 57.8706L14.9812 57.7541C14.4399 57.4048 14.0768 57.1377 14.0768 57.076C14.0768 56.9528 14.3509 56.5624 14.4399 56.5624C14.4879 56.5624 14.6797 56.6788 14.8716 56.8158ZM31.9178 56.8706L31.9247 57.1445L31.2875 57.1651L30.6503 57.1856L30.6709 56.8706L30.6914 56.5555L31.3012 56.576L31.911 56.5966L31.9178 56.8706ZM48.5256 57.624C48.6078 57.7541 48.6763 57.8911 48.6763 57.9254C48.6763 58.0076 47.8473 58.5281 47.6349 58.5829C47.4979 58.6171 47.4499 58.5829 47.3197 58.3569L47.169 58.0829L47.6966 57.7404C47.9912 57.5486 48.2652 57.3911 48.2995 57.3911C48.3406 57.3911 48.4365 57.4939 48.5256 57.624ZM16.7009 57.9939C16.9886 58.1651 17.2284 58.3363 17.2284 58.3843C17.2284 58.5212 16.9955 58.8911 16.9064 58.8911C16.8105 58.8911 15.8719 58.3569 15.8239 58.2747C15.7759 58.1925 16.05 57.6445 16.1254 57.6719C16.1528 57.6856 16.4131 57.8295 16.7009 57.9939ZM46.7442 58.6582C46.8333 58.7952 46.8881 58.9459 46.8744 58.9939C46.8539 59.0418 46.5866 59.2062 46.2783 59.3706C45.6686 59.6788 45.7028 59.6856 45.4836 59.2815C45.4219 59.1719 45.3945 59.0623 45.4151 59.0418C45.463 58.9939 46.4976 58.4254 46.5524 58.4185C46.5729 58.4185 46.6552 58.5212 46.7442 58.6582ZM18.5096 58.9733C18.8043 59.1308 19.0509 59.261 19.0646 59.2678C19.1263 59.3158 18.8454 59.85 18.7632 59.85C18.6467 59.85 17.571 59.3158 17.571 59.261C17.571 59.1719 17.8519 58.6856 17.9067 58.6856C17.941 58.6856 18.215 58.8158 18.5096 58.9733ZM44.9286 59.6582C44.9903 59.8158 45.0382 59.9528 45.0245 59.9596C44.956 60.0281 43.9626 60.4664 43.8735 60.4664C43.7502 60.4664 43.4693 59.9117 43.572 59.8706C43.6131 59.8569 43.8598 59.7404 44.1201 59.6103C44.3873 59.487 44.6477 59.3774 44.7094 59.3774C44.7779 59.3706 44.8601 59.4802 44.9286 59.6582ZM20.0992 59.7199C20.428 59.8432 20.8528 60.0349 20.9145 60.0897C20.9282 60.1034 20.9008 60.2336 20.8528 60.3911C20.798 60.5623 20.7295 60.6719 20.661 60.6719C20.4349 60.6788 19.4894 60.2267 19.4894 60.1171C19.4894 60.0281 19.6812 59.576 19.7155 59.576C19.7223 59.576 19.8936 59.6377 20.0992 59.7199ZM43.0582 60.5075C43.1061 60.6445 43.1267 60.7678 43.1061 60.7815C43.0513 60.8363 42.0031 61.2199 41.9071 61.2199C41.8249 61.2199 41.729 61.0349 41.6468 60.713C41.6125 60.5692 41.6399 60.5486 41.914 60.4801C42.0784 60.4322 42.3525 60.3432 42.5169 60.2678C42.8663 60.124 42.9417 60.1582 43.0582 60.5075ZM22.23 60.5349C22.8466 60.7336 22.874 60.7541 22.8192 61.0212C22.737 61.439 22.7233 61.4459 22.0381 61.213C21.6339 61.076 21.4078 60.9664 21.4078 60.9048C21.4078 60.7062 21.6133 60.3158 21.6955 60.3569C21.7435 60.3706 21.9833 60.4528 22.23 60.5349ZM41.0781 61.1171C41.1603 61.3363 41.1672 61.439 41.1124 61.4801C40.9754 61.5829 39.8928 61.85 39.8312 61.7884C39.8038 61.761 39.7558 61.6034 39.7284 61.4527L39.6873 61.1719L40.1532 61.0281C40.5574 60.9117 40.7013 60.8706 40.9342 60.8158C40.9548 60.8158 41.0165 60.9459 41.0781 61.1171ZM24.3059 61.1719L24.8472 61.3158L24.7992 61.5897C24.7787 61.7473 24.7307 61.898 24.7033 61.9253C24.6279 62.0007 23.4564 61.6925 23.4152 61.5897C23.4015 61.5418 23.4221 61.3774 23.4632 61.2199C23.5249 60.9938 23.566 60.9459 23.655 60.9801C23.7167 61.0075 24.0113 61.0897 24.3059 61.1719ZM39.0775 61.6103C39.2008 62.0555 39.2488 62.0281 38.0087 62.2815C37.7963 62.3226 37.7895 62.3226 37.7484 62.0144C37.6935 61.6582 37.7346 61.5623 37.9402 61.5623C38.0224 61.5623 38.2485 61.5144 38.4335 61.4664C38.961 61.3158 39.0022 61.3295 39.0775 61.6103ZM26.2654 61.6103L26.8341 61.7199L26.7998 62.0212C26.7861 62.1856 26.7519 62.3432 26.7313 62.3637C26.7039 62.3843 26.3956 62.35 26.0325 62.2815L25.3747 62.1651L25.4158 61.8774C25.4912 61.4253 25.4364 61.4459 26.2654 61.6103ZM37.0701 62.076C37.0906 62.2473 37.0975 62.4048 37.0769 62.4253C37.029 62.4801 35.8026 62.624 35.7615 62.5829C35.7409 62.5623 35.7066 62.4048 35.6861 62.2336L35.645 61.9253L36.1794 61.8569C37.0769 61.7404 37.0153 61.7267 37.0701 62.076ZM28.4853 61.9459C28.8484 61.987 28.8758 62.0007 28.8758 62.1719C28.8758 62.2678 28.8552 62.4253 28.8278 62.5144C28.7867 62.6719 28.773 62.6719 28.266 62.6308C27.5055 62.5623 27.437 62.5349 27.437 62.3226C27.437 62.2267 27.4576 62.0692 27.485 61.987C27.5192 61.8432 27.5535 61.8295 27.807 61.8637C27.9646 61.8843 28.266 61.9185 28.4853 61.9459ZM30.849 62.1445C30.897 62.1651 30.9312 62.2952 30.9312 62.487C30.9312 62.6719 30.897 62.8089 30.849 62.8295C30.801 62.8432 30.4859 62.8363 30.1433 62.8089C29.5267 62.761 29.5267 62.761 29.5061 62.5623C29.4924 62.4596 29.4993 62.2952 29.5198 62.213C29.5609 62.0623 29.5815 62.0555 30.157 62.0897C30.4927 62.1034 30.801 62.1308 30.849 62.1445ZM35.0421 62.3774V62.7062L34.6241 62.7541C33.9664 62.8226 33.6718 62.8089 33.6718 62.7062C33.6718 62.6651 33.6512 62.5075 33.6307 62.3706C33.5896 62.124 33.5896 62.1171 33.8499 62.0897C34.0006 62.076 34.3227 62.0623 34.583 62.0555L35.0421 62.0418V62.3774ZM32.9729 62.576L32.9524 62.8295H32.2672H31.5821L31.5615 62.5075L31.541 62.1856L32.2124 62.1651C32.9661 62.1445 33.0072 62.1651 32.9729 62.576Z" fill="#DD0024"/>
<path d="M36.8234 4.0761C36.5905 4.17199 36.3438 4.5487 36.3438 4.82268C36.3438 5.19254 36.474 5.43911 36.748 5.5898C37.0564 5.76788 37.303 5.78158 37.5771 5.63774C38.1731 5.32952 38.2416 4.49391 37.7004 4.16514C37.4811 4.03501 37.0495 3.99391 36.8234 4.0761Z" fill="#DD0024"/>
<path d="M31.6712 12.3638L31.3697 13.309L30.3146 13.3432L29.2663 13.3775L29.7391 13.7268C29.9994 13.9117 30.3763 14.1857 30.5749 14.3295C30.8696 14.5419 30.9244 14.6172 30.8901 14.7405C30.7051 15.3501 30.3625 16.4049 30.3283 16.4528C30.2803 16.535 30.6023 16.4254 30.7051 16.3158C30.9518 16.0761 31.9726 15.3912 32.048 15.4186C32.096 15.4391 32.4659 15.7062 32.8839 16.0076C33.2949 16.309 33.6444 16.5419 33.6581 16.535C33.6649 16.5213 33.5347 16.083 33.3703 15.5624C33.199 15.0419 33.0826 14.5967 33.11 14.5693C33.1374 14.5487 33.4046 14.3501 33.706 14.1241C34.0075 13.9049 34.3638 13.6515 34.4939 13.5556L34.7337 13.3775L33.6855 13.3432L32.6372 13.309L32.3357 12.398C32.1713 11.8912 32.0206 11.4665 32 11.446C31.9863 11.4254 31.8356 11.8364 31.6712 12.3638Z" fill="#DD0024"/>
<path d="M27.5329 15.2062C26.9506 16.1172 26.6833 17.0624 26.6833 18.1514C26.6902 20.6857 28.5538 22.9185 31.0271 23.35C31.7602 23.4733 32.9729 23.398 33.6375 23.1857C34.6036 22.8706 35.6244 22.1583 36.1931 21.398C36.9125 20.4459 37.2345 19.5692 37.2824 18.398C37.3373 17.2336 37.1386 16.3775 36.6042 15.4528C36.2753 14.8843 36.1588 14.7953 36.3712 15.2747C36.6247 15.8501 36.7138 16.3364 36.7138 17.1103C36.7206 17.9939 36.6247 18.4049 36.2342 19.2062C34.8365 22.0692 30.9929 22.7405 28.7182 20.5144C27.9097 19.7268 27.4439 18.8158 27.2931 17.7405C27.1835 16.9597 27.3137 15.9597 27.6151 15.2816C27.6974 15.0829 27.759 14.9186 27.7453 14.9186C27.7248 14.9186 27.6288 15.0487 27.5329 15.2062Z" fill="#DD0024"/>
<path d="M26.375 25.9393C25.2308 26.3502 24.4429 27.1584 24.1209 28.268C23.7989 29.3708 24.1552 30.6858 25.0048 31.5283C26.8341 33.357 29.8966 32.542 30.6229 30.0283C30.712 29.7338 30.7325 29.4461 30.712 28.9666C30.6914 28.3776 30.664 28.2475 30.4379 27.7749C30.0063 26.8708 29.3348 26.2817 28.3551 25.9461C27.8412 25.768 26.8683 25.768 26.375 25.9393Z" fill="#DD0024"/>
<path d="M36.3438 27.9596C34.8913 28.2815 33.9116 29.7199 34.1514 31.1856C34.4597 33.0829 36.5288 34.1445 38.2554 33.2884C38.9473 32.9459 39.564 32.1719 39.7627 31.3911C39.9202 30.8089 39.8038 29.9802 39.4955 29.3843C39.1323 28.6925 38.2896 28.0898 37.4743 27.9391C36.9878 27.85 36.8303 27.85 36.3438 27.9596Z" fill="#DD0024"/>
<path d="M25.7858 33.5077C24.5663 34.0077 23.4015 34.8638 22.4423 35.9665C21.4489 37.1172 20.4212 39.2611 19.8251 41.4186L19.6059 42.2405L19.921 42.7063C20.4828 43.5282 21.0515 44.1515 21.5585 44.5076C21.9627 44.7953 22.2985 44.9391 22.2985 44.8227C22.2985 44.809 22.3944 44.2816 22.504 43.6515C22.6958 42.6104 22.9219 41.7405 23.0384 41.6172C23.0658 41.5898 23.0727 42.2679 23.059 43.1172C23.0384 44.5487 23.0453 44.6788 23.1617 44.761C23.2303 44.809 23.3741 44.8501 23.4769 44.8501C23.7921 44.8501 25.3473 45.1857 25.8749 45.3706C26.6628 45.6514 27.5809 46.1514 27.9166 46.4939C27.9372 46.5145 28.0673 46.6309 28.2044 46.7542L28.451 46.9871L28.7456 46.583C29.4924 45.5693 30.3077 44.9802 31.1025 44.8843C31.4382 44.8432 31.4519 44.8432 31.7465 45.1515L32.048 45.4597L32.4043 45.1515C32.8016 44.8158 32.8702 44.809 33.5621 45.0624C34.0554 45.2473 34.3843 45.4939 35.0695 46.1788C35.4942 46.6035 35.6998 46.7679 35.7614 46.7268C35.8094 46.6925 36.0286 46.5213 36.2479 46.3364C37.1934 45.5761 38.4335 45.1309 40.3108 44.8843C40.7013 44.8295 41.037 44.7747 41.0576 44.7542C41.0781 44.7336 41.0507 44.4939 41.0096 44.2199C40.9616 43.946 40.9068 43.2473 40.8863 42.672C40.8246 41.083 40.9753 41.2816 41.5166 43.5145C41.7633 44.5487 41.8112 44.6788 41.9414 44.6994C42.1195 44.7268 42.3936 44.583 42.695 44.3227C42.9348 44.1104 44.4284 42.261 44.4284 42.1789C44.4284 42.0898 43.894 40.5761 43.5994 39.8364C43.2911 39.0556 42.8389 38.1789 42.421 37.5624C41.4344 36.1035 39.9134 34.9255 38.1663 34.2679L37.8374 34.1378L37.4263 34.5967C37.2002 34.8501 36.981 35.0556 36.9399 35.0556C36.8988 35.0556 36.659 34.8501 36.4055 34.6035L35.9533 34.1515L35.549 34.3227C34.583 34.7337 33.5279 35.4118 32.9935 35.9734C32.8633 36.1104 32.7331 36.22 32.6989 36.22C32.6715 36.22 32.3632 35.9597 32.0137 35.6378C31.1505 34.8433 30.294 34.2405 29.3896 33.7953C28.2797 33.2474 28.3414 33.2474 27.8275 33.7816C27.5877 34.0282 27.3685 34.2337 27.3274 34.2337C27.2931 34.2337 27.0602 34.035 26.8204 33.7885C26.5806 33.5419 26.3339 33.3433 26.2723 33.3433C26.2175 33.3433 25.9982 33.4186 25.7858 33.5077ZM32.9592 40.5008C34.1788 41.0967 34.4597 42.7542 33.5005 43.7062C33.0825 44.1241 32.7742 44.261 32.1508 44.2884C31.6986 44.3158 31.5684 44.2884 31.2532 44.1446C30.3214 43.7199 29.8555 42.7473 30.1159 41.7474C30.2666 41.1515 30.9175 40.4939 31.5067 40.3432C31.9247 40.2337 32.555 40.3022 32.9592 40.5008Z" fill="#DD0024"/>
<path d="M13.7822 10.0626C13.378 10.364 13.282 10.8777 13.5424 11.2612C13.7274 11.5284 13.9261 11.6311 14.2549 11.6311C14.7688 11.6311 15.1045 11.2818 15.1045 10.7338C15.1045 10.4941 15.0634 10.4051 14.8373 10.1859C14.6112 9.95303 14.529 9.91878 14.2755 9.91878C14.0768 9.92563 13.9055 9.97357 13.7822 10.0626Z" fill="#DD0024"/>
<path d="M4.5191 25.8706C4.17653 26.0213 4.00525 26.2747 4.00525 26.6103C4.00525 26.9528 4.12857 27.172 4.40948 27.3638C4.985 27.7542 5.7181 27.3364 5.7181 26.624C5.7181 26.3364 5.68384 26.261 5.4783 26.0487C5.34127 25.9186 5.17684 25.809 5.10147 25.809C5.03296 25.809 4.93704 25.7953 4.88223 25.7747C4.83427 25.761 4.66983 25.8021 4.5191 25.8706Z" fill="#DD0024"/>
<path d="M58.7067 26.4186C58.3916 26.6104 58.2682 26.8227 58.2682 27.1652C58.2682 27.4254 58.3025 27.5076 58.5423 27.7405C58.8095 28.0076 58.8232 28.0145 59.2069 27.9871C59.5495 27.9597 59.618 27.9254 59.7893 27.72C59.94 27.5419 59.9811 27.4254 59.9811 27.1583C59.9811 26.8569 59.9537 26.7885 59.7139 26.5556C59.4946 26.3364 59.3987 26.2885 59.1863 26.2885C59.0356 26.2885 58.8232 26.3501 58.7067 26.4186Z" fill="#DD0024"/>
<path d="M3.58046 29.9322C3.5188 29.9802 3.45028 30.1788 3.42288 30.3774C3.38177 30.7062 3.38862 30.7404 3.51195 30.7404C3.58731 30.7404 3.73804 30.761 3.84766 30.7815C4.05321 30.8226 4.05321 30.8158 4.09431 30.487C4.15598 29.9733 3.88877 29.6925 3.58046 29.9322Z" fill="#DD0024"/>
<path d="M3.60789 33.5898C3.45716 33.6926 3.41605 33.9118 3.49827 34.22C3.53937 34.357 3.58048 34.3775 3.86139 34.357L4.17655 34.3364L4.16285 34.0282C4.14915 33.809 4.10804 33.6857 3.99842 33.5967C3.82028 33.4529 3.79973 33.4529 3.60789 33.5898Z" fill="#DD0024"/>
<path d="M56.1717 43.2541C56.0141 43.624 56.0278 43.9733 56.2128 44.2336C56.4869 44.6171 57.0761 44.7062 57.4255 44.4116C57.6105 44.261 57.9188 43.713 57.8503 43.6651C57.727 43.576 56.4321 43.0007 56.3704 43.0007C56.3225 43.0007 56.2334 43.1171 56.1717 43.2541Z" fill="#DD0024"/>
<path d="M8.22571 44.7541C8.08868 44.8911 8.08868 45.0623 8.23256 45.3637C8.36274 45.6376 8.47236 45.6582 8.78752 45.4664L9.01362 45.3226L8.86289 45.0692C8.60939 44.6445 8.4244 44.5486 8.22571 44.7541Z" fill="#DD0024"/>
<path d="M7.03357 45.4116C6.98561 45.4596 6.95135 45.5486 6.95135 45.6171C6.95135 45.7609 7.20486 46.2883 7.26652 46.2883C7.29392 46.2883 7.43095 46.2198 7.57483 46.1376L7.83518 45.9938L7.72556 45.7815C7.50632 45.35 7.23911 45.2061 7.03357 45.4116Z" fill="#DD0024"/>
<path d="M12.5353 51.6103C12.3982 51.898 12.3092 52.1446 12.3229 52.1583C12.3503 52.1925 12.9737 51.8843 13.2409 51.7131L13.3985 51.6103L13.145 51.3432C13.0011 51.1994 12.8573 51.0829 12.8299 51.0829C12.7956 51.0829 12.6654 51.3158 12.5353 51.6103Z" fill="#DD0024"/>
</g>
<defs>
<clipPath id="clip0_1_737">
<rect width="64" height="64" fill="white" transform="matrix(1 0 0 -1 0 64)"/>
</clipPath>
</defs>
</svg>
