<svg width="48" height="48" viewBox="0 0 48 48" fill="none" xmlns="http://www.w3.org/2000/svg">
<path fill-rule="evenodd" clip-rule="evenodd" d="M48 24C48 10.7452 37.2548 0 24 0C10.7452 0 0 10.7452 0 24C0 37.2548 10.7452 48 24 48C37.2548 48 48 37.2548 48 24ZM37.1681 32.647C37.2628 32.7941 37.3954 33.0503 37.4522 33.2163C37.5754 33.5579 37.6275 34.094 37.5612 34.4023C37.4665 34.853 37.1301 35.4175 36.2207 36.6414C35.6712 37.3767 34.686 38.3871 34.2881 38.6244C33.3455 39.1746 32.545 39.1414 30.7025 38.4726C27.5431 37.3245 24.4974 35.6452 21.5607 33.4393C15.9382 29.2172 11.8458 23.8994 9.10321 17.239C8.75269 16.3898 8.69587 16.1147 8.729 15.4506C8.76693 14.6441 9.0179 14.0322 9.67156 13.1688C10.3963 12.2153 12.0921 10.8491 12.9967 10.498C13.8541 10.1659 14.6309 10.2513 15.2372 10.7446C15.5735 11.0246 17.2598 13.0929 17.9371 14.0606C18.4487 14.7959 19.1544 15.9344 19.4244 16.4563C19.775 17.1441 19.8365 17.8272 19.6091 18.4961C19.4292 19.0227 19.2729 19.1982 18.3065 19.9667C17.814 20.3652 17.3687 20.7305 17.326 20.7779C17.2835 20.8301 17.1887 20.9961 17.1177 21.1527C16.8288 21.7741 17.004 22.6233 17.6955 24.0133C18.2308 25.0949 18.9081 26.0531 19.9029 27.1395C20.746 28.0645 21.8449 28.9991 22.7022 29.5208C23.8059 30.1945 25.2411 30.7068 26.0321 30.7116C26.3732 30.7116 26.8563 30.574 27.1026 30.4032C27.2021 30.3368 27.5763 29.9146 27.941 29.4639C28.8457 28.3396 29.1299 28.0883 29.6699 27.9364C30.172 27.7894 30.8493 27.9459 31.7635 28.4155C33.3645 29.2362 36.5712 31.7458 37.1681 32.647Z" fill="#C3C3C3"/>
</svg>
